<svg xmlns="http://www.w3.org/2000/svg" xmlns:xlink="http://www.w3.org/1999/xlink" version="1" width="24" height="24"><defs><linearGradient id="a"><stop offset="0" stop-opacity="0"/><stop offset=".5"/><stop offset="1" stop-opacity="0"/></linearGradient><linearGradient x1="302.857" y1="366.648" x2="302.857" y2="609.505" id="k" xlink:href="#a" gradientUnits="userSpaceOnUse" gradientTransform="matrix(.035 0 0 .008 -.725 18.981)"/><radialGradient cx="605.714" cy="486.648" r="117.143" fx="605.714" fy="486.648" id="l" xlink:href="#b" gradientUnits="userSpaceOnUse" gradientTransform="matrix(-.012 0 0 .008 10.761 18.981)"/><linearGradient id="b"><stop offset="0"/><stop offset="1" stop-opacity="0"/></linearGradient><radialGradient cx="605.714" cy="486.648" r="117.143" fx="605.714" fy="486.648" id="m" xlink:href="#b" gradientUnits="userSpaceOnUse" gradientTransform="matrix(.012 0 0 .008 13.239 18.981)"/><linearGradient id="c"><stop offset="0" stop-color="#643340"/><stop offset="1" stop-color="#a77a86"/></linearGradient><linearGradient x1="-51.786" y1="53.624" x2="-51.786" y2="2.906" id="o" xlink:href="#c" gradientUnits="userSpaceOnUse" gradientTransform="matrix(.392 0 0 .447 29.199 -1.239)"/><linearGradient id="d"><stop offset="0" stop-color="#e694bb"/><stop offset=".262" stop-color="#d3819a"/><stop offset=".705" stop-color="#b25a64"/><stop offset="1" stop-color="#98313d"/></linearGradient><radialGradient cx="14.239" cy="11.49" r="18" fx="14.239" fy="11.49" id="n" xlink:href="#d" gradientUnits="userSpaceOnUse" gradientTransform="matrix(0 1.589 -2.574 0 36.379 -19.498)"/><linearGradient id="e"><stop offset="0" stop-color="#fff"/><stop offset="1" stop-color="#fff" stop-opacity="0"/></linearGradient><linearGradient x1="24" y1="2" x2="24" y2="46.017" id="p" xlink:href="#e" gradientUnits="userSpaceOnUse" gradientTransform="matrix(.455 0 0 .465 1.091 .337)"/><linearGradient id="f"><stop offset="0" stop-color="#fefefe"/><stop offset="1" stop-color="#cbcbcb"/></linearGradient><linearGradient x1="32.892" y1="8.059" x2="36.358" y2="5.457" id="q" xlink:href="#f" gradientUnits="userSpaceOnUse" gradientTransform="matrix(.478 0 0 .552 .372 -.076)"/><linearGradient id="g"><stop offset="0" stop-color="#fff"/><stop offset="1" stop-color="#fff" stop-opacity="0"/></linearGradient><linearGradient x1="16.626" y1="15.298" x2="20.055" y2="24.628" id="r" xlink:href="#g" gradientUnits="userSpaceOnUse" gradientTransform="matrix(.348 0 0 .697 3.641 -3.159)"/><linearGradient id="h"><stop offset="0"/><stop offset="1" stop-opacity="0"/></linearGradient><linearGradient x1="75.854" y1="28" x2="91" y2="12" id="s" xlink:href="#h" gradientUnits="userSpaceOnUse" gradientTransform="matrix(.561 0 0 .447 -29.284 3.084)" spreadMethod="reflect"/><linearGradient id="i"><stop offset="0" stop-color="#fff"/><stop offset="1" stop-color="#fff" stop-opacity="0"/></linearGradient><linearGradient x1="75.854" y1="28" x2="91" y2="12" id="t" xlink:href="#i" gradientUnits="userSpaceOnUse" gradientTransform="matrix(.561 0 0 .447 -29.284 2.544)" spreadMethod="reflect"/><linearGradient id="j"><stop offset="0" stop-color="#51293c"/><stop offset="1" stop-color="#876374"/></linearGradient><linearGradient x1="24.239" y1="44.11" x2="24.239" y2=".191" id="u" xlink:href="#j" gradientUnits="userSpaceOnUse" gradientTransform="matrix(.504 0 0 .503 1.907 -.428)"/></defs><g><rect width="17" height="2" x="3.5" y="22" opacity=".15" fill="url(#k)" overflow="visible"/><path d="M3.5 22v2c-.62.004-1.5-.448-1.5-1s.692-1 1.5-1z" opacity=".15" fill="url(#l)" overflow="visible"/><path d="M20.5 22v2c.62.004 1.5-.448 1.5-1s-.692-1-1.5-1z" opacity=".15" fill="url(#m)" overflow="visible"/><path d="M3.5.5h11.5c.683.237 4.541 3.128 5.5 5v17h-17v-22z" fill="url(#n)" stroke="url(#o)" stroke-linejoin="round" overflow="visible" enable-background="accumulate"/><path d="M19.5 5.677v15.823h-15v-20h10.394" opacity=".4" stroke="url(#p)" fill="none"/><path d="M14.075 1c1.156.329.339 4.614.339 4.614s4.515-.428 5.608 1.195c1.489 2.212-.068-.635-.173-.822-.756-1.34-3.866-4.547-5.045-4.941-.088-.029-.284-.046-.728-.046z" opacity=".2" fill-rule="evenodd"/><path d="M14 1c1.526 0 1 4 1 4s4.992-.453 4.992 2c0-.598.056-1.478-.064-1.656-.839-1.243-3.744-3.862-4.798-4.298-.086-.036-.686-.046-1.13-.046z" fill="url(#q)" fill-rule="evenodd"/><path d="M4.762 1c-.421 0-.762.682-.762 1.524v11.148c.001.094.022.182.057.245.035.062.082.092.128.082l15.673-4.964c.081-.025.14-.163.141-.327v-3l-5.098-4.707h-10.14z" opacity=".2" fill="url(#r)" fill-rule="evenodd"/><path d="M16.345 8.446c-.206-.008-.411.001-.612.017-1.766.141-3.293 1.208-3.88 2.904-.362 1.045-.289 2.152.097 3.179l-7.95 6.967v.486h4.703l-.102-1.336 2.592.516.306-2.389 2.431.516 1.594-1.358c1.628.528 3.28.258 4.476-.619v-5.723c-.198.05-.427.037-.644-.052-.531-.217-.83-.797-.66-1.289.128-.369.494-.607.886-.601.131.002.27.032.403.086l.016.017v-.894c-.518-.139-1.04-.083-1.449.155l-.322-.172c-.624-.255-1.266-.388-1.884-.412z" opacity=".1" fill="url(#s)" overflow="visible" enable-background="accumulate"/><path d="M16.345 7.906c-.206-.008-.411.001-.612.017-1.766.141-3.293 1.208-3.88 2.904-.362 1.045-.289 2.152.097 3.179l-7.95 7.021.022.972h4.724l-.145-1.876 2.592.516.306-2.389 2.431.516 1.594-1.358c1.628.528 3.28.258 4.476-.619v-5.723c-.198.05-.427.037-.644-.052-.531-.217-.83-.797-.66-1.289.128-.369.494-.607.886-.601.131.002.27.032.403.086l.016.017v-.894c-.518-.139-1.04-.083-1.449.155l-.322-.172c-.624-.255-1.266-.388-1.884-.412z" opacity=".4" fill="url(#t)" overflow="visible" enable-background="accumulate"/><path d="M14.648 18l-.648-3h-3.787l-.862 3h-2.352l3.569-11h2.847l3.584 11h-2.352zm-1.292-4.556c-.413-1.453-.888-2.888-1.246-4.356-.069-.221-.1-.809-.164-.264-.35 1.559-.832 3.084-1.272 4.62h2.682z" style="-inkscape-font-specification:Droid Sans Bold" font-size="30.514" font-weight="bold" opacity=".4" fill="#fff" overflow="visible" enable-background="accumulate" font-family="Droid Sans"/><path d="M14.648 17l-.648-3h-3.787l-.862 3h-2.352l3.569-11h2.847l3.584 11h-2.352zm-1.292-5c-.281-1.14-1.239-3.658-1.356-4-.35 1.559-.886 2.465-1.326 4h2.682z" style="-inkscape-font-specification:Droid Sans Bold" font-size="30.514" font-weight="bold" fill="url(#u)" font-family="Droid Sans"/></g></svg>