<svg xmlns="http://www.w3.org/2000/svg" xmlns:xlink="http://www.w3.org/1999/xlink" version="1" width="24" height="24"><defs><linearGradient id="a"><stop offset="0" stop-opacity="0"/><stop offset=".5"/><stop offset="1" stop-opacity="0"/></linearGradient><linearGradient x1="302.857" y1="366.648" x2="302.857" y2="609.505" id="l" xlink:href="#a" gradientUnits="userSpaceOnUse" gradientTransform="matrix(.035 0 0 .008 -.725 18.981)"/><radialGradient cx="605.714" cy="486.648" r="117.143" fx="605.714" fy="486.648" id="m" xlink:href="#b" gradientUnits="userSpaceOnUse" gradientTransform="matrix(-.012 0 0 .008 10.761 18.981)"/><linearGradient id="b"><stop offset="0"/><stop offset="1" stop-opacity="0"/></linearGradient><radialGradient cx="605.714" cy="486.648" r="117.143" fx="605.714" fy="486.648" id="n" xlink:href="#b" gradientUnits="userSpaceOnUse" gradientTransform="matrix(.012 0 0 .008 13.239 18.981)"/><linearGradient id="c"><stop offset="0" stop-color="#aaa"/><stop offset="1" stop-color="#c8c8c8"/></linearGradient><linearGradient x1="-51.786" y1="50.786" x2="-51.786" y2="2.906" id="p" xlink:href="#c" gradientUnits="userSpaceOnUse" gradientTransform="matrix(.392 0 0 .447 29.199 -1.239)"/><linearGradient id="d"><stop offset="0" stop-color="#f4f4f4"/><stop offset="1" stop-color="#dbdbdb"/></linearGradient><linearGradient x1="25.132" y1=".985" x2="25.132" y2="47.013" id="o" xlink:href="#d" gradientUnits="userSpaceOnUse" gradientTransform="matrix(.486 0 0 .478 .343 -.706)"/><radialGradient cx="102" cy="112.305" r="139.559" id="e" gradientUnits="userSpaceOnUse"><stop offset="0" stop-color="#b7b8b9"/><stop offset=".189" stop-color="#ececec"/><stop offset=".257" stop-color="#fafafa" stop-opacity="0"/><stop offset=".301" stop-color="#fff" stop-opacity="0"/><stop offset=".531" stop-color="#fafafa" stop-opacity="0"/><stop offset=".845" stop-color="#ebecec" stop-opacity="0"/><stop offset="1" stop-color="#e1e2e3" stop-opacity="0"/></radialGradient><radialGradient cx="102" cy="112.305" r="139.559" id="q" xlink:href="#e" gradientUnits="userSpaceOnUse" gradientTransform="matrix(.17 0 0 -.191 1.106 23.717)"/><linearGradient id="f"><stop offset="0" stop-color="#fff"/><stop offset="1" stop-color="#fff" stop-opacity="0"/></linearGradient><linearGradient x1="24" y1="2" x2="24" y2="46.017" id="r" xlink:href="#f" gradientUnits="userSpaceOnUse" gradientTransform="matrix(.455 0 0 .465 1.091 .337)"/><linearGradient id="g"><stop offset="0" stop-color="#0d0d0d"/><stop offset="1" stop-color="#0d0d0d" stop-opacity="0"/></linearGradient><radialGradient cx="11.25" cy="19.031" r="8.063" fx="11.25" fy="19.031" id="s" xlink:href="#g" gradientUnits="userSpaceOnUse" gradientTransform="matrix(1 0 0 .283 0 13.646)"/><linearGradient id="h"><stop offset="0" stop-color="#517081" stop-opacity="0"/><stop offset=".281" stop-color="#3f6479"/><stop offset="1" stop-color="#2e5871"/></linearGradient><linearGradient x1="16.713" y1="12.415" x2="16.713" y2="33.624" id="u" xlink:href="#h" gradientUnits="userSpaceOnUse" gradientTransform="matrix(.662 0 0 .665 -3.733 -2.76)"/><linearGradient id="i"><stop offset="0" stop-color="#a2bfcf" stop-opacity="0"/><stop offset=".282" stop-color="#a2bfcf"/><stop offset="1" stop-color="#427da1"/></linearGradient><linearGradient x1="44.715" y1="20.71" x2=".816" y2="20.71" id="t" xlink:href="#i" gradientUnits="userSpaceOnUse" gradientTransform="matrix(0 -.327 -.319 0 19.768 20.122)"/><linearGradient id="j"><stop offset="0" stop-color="#fff" stop-opacity="0"/><stop offset=".174" stop-color="#fff"/><stop offset="1" stop-color="#fff" stop-opacity="0"/></linearGradient><linearGradient x1="6.009" y1="25.411" x2="57.726" y2="25.411" id="v" xlink:href="#j" gradientUnits="userSpaceOnUse" gradientTransform="matrix(0 .343 -.33 0 21.038 4.427)"/><linearGradient id="k"><stop offset="0" stop-color="#fefefe"/><stop offset="1" stop-color="#cbcbcb"/></linearGradient><linearGradient x1="32.892" y1="8.059" x2="36.358" y2="5.457" id="w" xlink:href="#k" gradientUnits="userSpaceOnUse" gradientTransform="matrix(.478 0 0 .552 .372 -.076)"/></defs><g><rect width="17" height="2" x="3.5" y="22" opacity=".15" fill="url(#l)" overflow="visible"/><path d="M3.5 22v2c-.62.004-1.5-.448-1.5-1s.692-1 1.5-1z" opacity=".15" fill="url(#m)" overflow="visible"/><path d="M20.5 22v2c.62.004 1.5-.448 1.5-1s-.692-1-1.5-1z" opacity=".15" fill="url(#n)" overflow="visible"/><path d="M3.5.5h11.5c.683.237 4.541 3.128 5.5 5v17h-17v-22z" fill="url(#o)" stroke="url(#p)" stroke-linejoin="round"/><path d="M4.17 22c-.094 0-.17-.086-.17-.191v-20.598c0-.105.076-.191.17-.191 3.521.053 7.424-.079 10.941.013l4.839 4.327.05 16.448c0 .105-.076.191-.17.191h-15.66z" fill="url(#q)"/><path d="M19.5 5.677v15.823h-15v-20h10.394" opacity=".6" stroke="url(#r)" fill="none"/><path d="M19.313 19.031a8.063 2.281 0 1 1-16.125 0 8.063 2.281 0 1 1 16.125 0z" transform="matrix(.992 0 0 .964 .837 .447)" opacity=".163" fill="url(#s)" overflow="visible"/><path d="M18.176 12.5l-6.192 7.001-6.161-7.001h2.676v-8.727h7v8.727h2.676z" fill="url(#t)" stroke="url(#u)" stroke-width=".985" stroke-linecap="round" stroke-linejoin="round" stroke-opacity=".882" overflow="visible" enable-background="accumulate"/><path d="M15.926 13.5l-3.926 4.545-4.037-4.545h1.537v-12.952h5v12.952h1.426z" opacity=".354" stroke="url(#v)" stroke-width=".985" overflow="visible" enable-background="accumulate" fill="none"/><path d="M14.075 1c1.156.329.339 4.614.339 4.614s4.515-.428 5.608 1.195c1.489 2.212-.068-.635-.173-.822-.756-1.34-3.866-4.547-5.045-4.941-.088-.029-.284-.046-.728-.046z" fill="#c0c0c0" fill-rule="evenodd"/><path d="M14 1c1.526 0 1 4 1 4s4.992-.453 4.992 2c0-.598.056-1.478-.064-1.656-.839-1.243-3.744-3.862-4.798-4.298-.086-.036-.686-.046-1.13-.046z" fill="url(#w)" fill-rule="evenodd"/></g></svg>