<svg xmlns="http://www.w3.org/2000/svg" xmlns:xlink="http://www.w3.org/1999/xlink" version="1" width="24" height="24"><defs><linearGradient id="a"><stop offset="0" stop-opacity="0"/><stop offset=".5"/><stop offset="1" stop-opacity="0"/></linearGradient><linearGradient x1="302.857" y1="366.648" x2="302.857" y2="609.505" id="k" xlink:href="#a" gradientUnits="userSpaceOnUse" gradientTransform="matrix(.035 0 0 .008 -.725 18.981)"/><radialGradient cx="605.714" cy="486.648" r="117.143" fx="605.714" fy="486.648" id="l" xlink:href="#b" gradientUnits="userSpaceOnUse" gradientTransform="matrix(-.012 0 0 .008 10.761 18.981)"/><linearGradient id="b"><stop offset="0"/><stop offset="1" stop-opacity="0"/></linearGradient><radialGradient cx="605.714" cy="486.648" r="117.143" fx="605.714" fy="486.648" id="m" xlink:href="#b" gradientUnits="userSpaceOnUse" gradientTransform="matrix(.012 0 0 .008 13.239 18.981)"/><linearGradient id="c"><stop offset="0" stop-color="#71171c"/><stop offset="1" stop-color="#ed8137"/></linearGradient><linearGradient x1="-51.786" y1="53.624" x2="-51.786" y2="2.906" id="o" xlink:href="#c" gradientUnits="userSpaceOnUse" gradientTransform="matrix(.392 0 0 .447 29.199 -1.239)"/><linearGradient id="d"><stop offset="0" stop-color="#f9c590"/><stop offset=".397" stop-color="#f19860"/><stop offset="1" stop-color="#ce5d36"/></linearGradient><radialGradient cx="14.239" cy="11.49" r="18" fx="14.239" fy="11.49" id="n" xlink:href="#d" gradientUnits="userSpaceOnUse" gradientTransform="matrix(0 1.589 -2.574 0 36.379 -19.498)"/><linearGradient id="e"><stop offset="0"/><stop offset="1" stop-opacity="0"/></linearGradient><linearGradient x1="75.854" y1="28" x2="91" y2="12" id="p" xlink:href="#e" gradientUnits="userSpaceOnUse" gradientTransform="matrix(.559 0 0 .445 -29.222 3.659)" spreadMethod="reflect"/><linearGradient id="f"><stop offset="0" stop-color="#fff"/><stop offset="1" stop-color="#fff" stop-opacity="0"/></linearGradient><linearGradient x1="75.854" y1="28" x2="91" y2="12" id="q" xlink:href="#f" gradientUnits="userSpaceOnUse" gradientTransform="matrix(.559 0 0 .445 -29.161 2.605)" spreadMethod="reflect"/><linearGradient x1="53.4" y1="70.079" x2="106.992" y2="-18.244" id="r" xlink:href="#g" gradientUnits="userSpaceOnUse" gradientTransform="matrix(.195 0 0 .155 1.782 11.642)" spreadMethod="reflect"/><linearGradient id="h"><stop offset="0" stop-color="#fff"/><stop offset="1" stop-color="#fff" stop-opacity="0"/></linearGradient><linearGradient x1="24" y1="2" x2="24" y2="46.017" id="s" xlink:href="#h" gradientUnits="userSpaceOnUse" gradientTransform="matrix(.455 0 0 .465 1.091 .337)"/><linearGradient id="i"><stop offset="0" stop-color="#fefefe"/><stop offset="1" stop-color="#cbcbcb"/></linearGradient><linearGradient x1="32.892" y1="8.059" x2="36.358" y2="5.457" id="v" xlink:href="#i" gradientUnits="userSpaceOnUse" gradientTransform="matrix(.478 0 0 .552 .372 -.076)"/><linearGradient id="j"><stop offset="0" stop-color="#fff"/><stop offset="1" stop-color="#fff" stop-opacity="0"/></linearGradient><linearGradient x1="16.626" y1="15.298" x2="20.055" y2="24.628" id="t" xlink:href="#j" gradientUnits="userSpaceOnUse" gradientTransform="matrix(.348 0 0 .697 3.641 -3.159)"/><linearGradient id="g"><stop offset="0" stop-color="#71171c"/><stop offset="1" stop-color="#ec7422"/></linearGradient><linearGradient x1="24.239" y1="42.236" x2="24.239" y2="1.598" id="u" xlink:href="#g" gradientUnits="userSpaceOnUse" gradientTransform="matrix(.495 0 0 .505 2.643 -.497)"/></defs><g><rect width="17" height="2" x="3.5" y="22" opacity=".15" fill="url(#k)" overflow="visible"/><path d="M3.5 22v2c-.62.004-1.5-.448-1.5-1s.692-1 1.5-1z" opacity=".15" fill="url(#l)" overflow="visible"/><path d="M20.5 22v2c.62.004 1.5-.448 1.5-1s-.692-1-1.5-1z" opacity=".15" fill="url(#m)" overflow="visible"/><path d="M3.5.5h11.5c.683.237 4.541 3.128 5.5 5v17h-17v-22z" fill="url(#n)" stroke="url(#o)" stroke-linejoin="round" overflow="visible" enable-background="accumulate"/><path d="M9.606 8l-5.606 7.432v7.568h13.318l2.682-3.551v-6.861l-10.394-4.589z" opacity=".1" fill="url(#p)" overflow="visible" enable-background="accumulate"/><path d="M9.606 7l-5.606 7.432v7.568h13.318l2.682-3.551v-6.861l-10.394-4.589z" opacity=".4" fill="url(#q)" overflow="visible" enable-background="accumulate"/><path d="M13.38 14.55c-1.04 1.296-.627 2.923.922 3.632 1.549.709 3.651.234 4.691-1.062s.627-2.923-.922-3.632c-1.549-.709-3.651-.234-4.691 1.062zm2.807 1.285l1.78-2.217c1.219.558 1.715 1.684 1.24 2.813l-3.019-.597z" opacity=".3" fill="url(#r)" overflow="visible" enable-background="accumulate"/><path d="M19.5 5.677v15.823h-15v-20h10.394" opacity=".4" stroke="url(#s)" fill="none"/><path d="M4.762 1c-.421 0-.762.682-.762 1.524v11.148c.001.094.022.182.057.245.035.062.082.092.128.082l15.673-4.964c.081-.025.14-.163.141-.327v-3l-5.098-4.707h-10.14z" opacity=".2" fill="url(#t)" fill-rule="evenodd"/><path d="M11.286 12.178c.717.005 1.548.033 2.071-.555.4-.528.405-1.289.186-1.894-.283-.691-1.095-.835-1.751-.816h-.506v3.265zm4.713-1.745c.015 1.103-.399 2.272-1.332 2.9-.964.69-2.175.785-3.316.756-.142.016-.029.292-.065.416v3.496h-2.286v-10.998c1.186.009 2.372-.02 3.557.019 1.135.072 2.378.475 2.993 1.523.332.565.449 1.236.449 1.888z" style="-inkscape-font-specification:Droid Sans Bold" font-size="31.585" font-weight="bold" opacity=".4" fill="#fff" font-family="Droid Sans"/><path d="M11.286 11.178c.717.005 1.548.033 2.071-.555.4-.528.405-1.289.186-1.894-.283-.691-1.095-.835-1.751-.816h-.506v3.265zm4.713-1.745c.015 1.103-.399 2.272-1.332 2.9-.964.69-2.175.785-3.316.756-.142.016-.029.292-.065.416v3.496h-2.286v-10.998c1.186.009 2.372-.02 3.557.019 1.135.072 2.378.475 2.993 1.523.332.565.449 1.236.449 1.888z" style="-inkscape-font-specification:Droid Sans Bold" font-size="31.585" font-weight="bold" fill="url(#u)" font-family="Droid Sans"/><path d="M14.075 1c1.156.329.339 4.614.339 4.614s4.515-.428 5.608 1.195c1.489 2.212-.068-.635-.173-.822-.756-1.34-3.866-4.547-5.045-4.941-.088-.029-.284-.046-.728-.046z" opacity=".2" fill-rule="evenodd"/><path d="M14 1c1.526 0 1 4 1 4s4.992-.453 4.992 2c0-.598.056-1.478-.064-1.656-.839-1.243-3.744-3.862-4.798-4.298-.086-.036-.686-.046-1.13-.046z" fill="url(#v)" fill-rule="evenodd"/></g></svg>