<svg xmlns="http://www.w3.org/2000/svg" xmlns:xlink="http://www.w3.org/1999/xlink" version="1" width="24" height="24"><defs><linearGradient id="h"><stop offset="0" stop-opacity="0"/><stop offset=".5"/><stop offset="1" stop-opacity="0"/></linearGradient><linearGradient id="g"><stop offset="0"/><stop offset="1" stop-opacity="0"/></linearGradient><linearGradient id="f"><stop offset="0" stop-color="#791235"/><stop offset="1" stop-color="#dd3b27"/></linearGradient><linearGradient id="e"><stop offset="0" stop-color="#f89b7e"/><stop offset=".25" stop-color="#e35d4f"/><stop offset=".752" stop-color="#c6262e"/><stop offset="1" stop-color="#690b2c"/></linearGradient><linearGradient id="d"><stop offset="0" stop-color="#fff"/><stop offset="1" stop-color="#dcdcdc"/></linearGradient><linearGradient id="c"><stop offset="0" stop-color="#fff"/><stop offset="1" stop-color="#fff" stop-opacity="0"/></linearGradient><linearGradient id="b"><stop offset="0" stop-color="#fefefe"/><stop offset="1" stop-color="#cbcbcb"/></linearGradient><linearGradient id="a"><stop offset="0" stop-color="#c4c4c4"/><stop offset="1" stop-color="#c4c4c4" stop-opacity="0"/></linearGradient><linearGradient xlink:href="#a" id="q" gradientUnits="userSpaceOnUse" gradientTransform="matrix(.516 0 0 .513 -.896 .185)" x1="35.349" y1="5.307" x2="34.103" y2="6.544"/><linearGradient xlink:href="#b" id="p" gradientUnits="userSpaceOnUse" gradientTransform="matrix(.478 0 0 .552 .372 -.076)" x1="32.892" y1="8.059" x2="36.358" y2="5.457"/><linearGradient xlink:href="#c" id="o" gradientUnits="userSpaceOnUse" gradientTransform="matrix(.455 0 0 .465 1.091 .337)" x1="24" y1="2" x2="24" y2="46.017"/><linearGradient xlink:href="#d" id="n" gradientUnits="userSpaceOnUse" gradientTransform="matrix(.421 0 0 .553 1.895 -1.763)" x1="23.97" y1="3.981" x2="23.97" y2="44.024"/><radialGradient xlink:href="#e" id="l" gradientUnits="userSpaceOnUse" gradientTransform="matrix(.014 2.065 -3.052 .021 28.232 -11.638)" cx="8.12" cy="6.628" fx="8.12" fy="6.628" r="9"/><linearGradient xlink:href="#f" id="m" gradientUnits="userSpaceOnUse" gradientTransform="matrix(.392 0 0 .447 29.199 -1.239)" x1="-53.412" y1="56.11" x2="-51.786" y2="2.906"/><radialGradient xlink:href="#g" id="k" gradientUnits="userSpaceOnUse" gradientTransform="matrix(.012 0 0 .008 13.239 18.981)" cx="605.714" cy="486.648" fx="605.714" fy="486.648" r="117.143"/><radialGradient xlink:href="#g" id="j" gradientUnits="userSpaceOnUse" gradientTransform="matrix(-.012 0 0 .008 10.761 18.981)" cx="605.714" cy="486.648" fx="605.714" fy="486.648" r="117.143"/><linearGradient xlink:href="#h" id="i" gradientUnits="userSpaceOnUse" gradientTransform="matrix(.035 0 0 .008 -.725 18.981)" x1="302.857" y1="366.648" x2="302.857" y2="609.505"/></defs><rect y="22" x="3.5" height="2" width="17" opacity=".15" fill="url(#i)" overflow="visible"/><path d="M3.5 22v2c-.62.004-1.5-.448-1.5-1s.692-1 1.5-1z" opacity=".15" fill="url(#j)" overflow="visible"/><path d="M20.5 22v2c.62.004 1.5-.448 1.5-1s-.692-1-1.5-1z" opacity=".15" fill="url(#k)" overflow="visible"/><path d="M3.5.5h11.5c.683.237 4.541 3.128 5.5 5v17h-17v-22z" fill="url(#l)" stroke="url(#m)" stroke-linejoin="round"/><path d="M13.603 1c-5.454 6.151-8.567 7.016-9.603 7.112v2.213c.782-.144 2.744-.642 4.838-2.366 2.685-2.211 5.897-6.41 5.897-6.41-.88 2.27-1.13 10.1-1.147 20.451h6.412v-1.038c-1.043-2.828-1.723-6.909-2.235-10.561-.302-3.017-.196-5.188.045-7.005-.904-.797-2.645-2.045-3.213-2.396h-.993zm-9.603 10.714v2.457c2.264 0 5.743 3.566 7.426 7.829h1.412c-.791-3.875-7.111-10.286-8.838-10.286z" fill="url(#n)" fill-rule="evenodd"/><path d="M16.939 2.953c-2.75 1.973-8.368 5.379-12.939 4.836v4.387s12.308 2.3 16-2.558v-3.856c-.638-.896-2.051-2.015-3.061-2.81zm3.061 11.18c-1.469 1.686-3.271 5.017-4.535 7.866l-1.582-.014c1.477-4.006 3.864-7.94 6.118-10.73v2.878z" opacity=".15" fill-rule="evenodd"/><path d="M19.5 5.677v15.823h-15v-20h10.394" opacity=".4" stroke="url(#o)" fill="none"/><path d="M14.075 1c1.156.329.339 4.614.339 4.614s4.515-.428 5.608 1.195c1.489 2.212-.068-.635-.173-.822-.756-1.34-3.866-4.547-5.045-4.941-.088-.029-.284-.046-.728-.046z" opacity=".2" fill-rule="evenodd"/><path d="M14 1c1.526 0 1 4 1 4s4.992-.453 4.992 2c0-.598.056-1.478-.064-1.656-.839-1.243-3.744-3.862-4.798-4.298-.086-.036-.686-.046-1.13-.046z" fill="url(#p)" fill-rule="evenodd"/><path d="M15.004.5c.725.244 4.478 3.045 5.496 4.967v6.217c-20.852 8.07-18.022-11.184-5.496-11.184z" stroke="url(#q)" stroke-linejoin="round" fill="none"/></svg>