<svg xmlns="http://www.w3.org/2000/svg" xmlns:xlink="http://www.w3.org/1999/xlink" width="24" height="24"><defs><linearGradient xlink:href="#a" id="p" gradientUnits="userSpaceOnUse" x1="12.913" y1="14.076" x2="12.913" y2="25.963" gradientTransform="matrix(1 0 0 -1 0 40.006)"/><linearGradient id="a"><stop offset="0"/><stop offset="1" stop-opacity="0"/></linearGradient><linearGradient xlink:href="#a" id="o" x1="12.913" y1="14.076" x2="12.913" y2="25.963" gradientUnits="userSpaceOnUse"/><linearGradient xlink:href="#b" id="n" x1="12.098" y1="29.917" x2="12.098" y2="9.984" gradientUnits="userSpaceOnUse"/><linearGradient id="b"><stop offset="0" stop-color="#505050"/><stop offset="1" stop-color="#8e8e8e"/></linearGradient><linearGradient xlink:href="#c" id="m" gradientUnits="userSpaceOnUse" gradientTransform="matrix(.459 0 0 .459 .974 8.972)" x1="24" y1="5" x2="24" y2="43"/><linearGradient id="c"><stop offset="0" stop-color="#fff"/><stop offset=".063" stop-color="#fff" stop-opacity=".235"/><stop offset=".951" stop-color="#fff" stop-opacity=".157"/><stop offset="1" stop-color="#fff" stop-opacity=".392"/></linearGradient><radialGradient r="20" fy="8.45" fx="7.496" cy="8.45" cx="7.496" gradientTransform="matrix(0 1.139 -1.204 0 22.177 2.25)" gradientUnits="userSpaceOnUse" id="k" xlink:href="#d"/><linearGradient id="d"><stop offset="0" stop-color="#c7c7c7"/><stop offset=".262" stop-color="#a6a6a6"/><stop offset=".705" stop-color="#7b7b7b"/><stop offset="1" stop-color="#595959"/></linearGradient><linearGradient y2="3.899" x2="24" y1="44" x1="24" gradientTransform="matrix(.487 0 0 .487 .308 8.308)" gradientUnits="userSpaceOnUse" id="l" xlink:href="#b"/><radialGradient r="2.5" fy="43.5" fx="4.993" cy="43.5" cx="4.993" gradientTransform="matrix(2.004 0 0 1.4 27.988 -17.4)" gradientUnits="userSpaceOnUse" id="h" xlink:href="#e"/><linearGradient id="e"><stop offset="0" stop-color="#181818"/><stop offset="1" stop-color="#181818" stop-opacity="0"/></linearGradient><radialGradient r="2.5" fy="43.5" fx="4.993" cy="43.5" cx="4.993" gradientTransform="matrix(2.004 0 0 1.4 -20.012 -104.4)" gradientUnits="userSpaceOnUse" id="i" xlink:href="#f"/><linearGradient id="f"><stop offset="0" stop-color="#181818"/><stop offset="1" stop-color="#181818" stop-opacity="0"/></linearGradient><linearGradient y2="39.999" x2="25.058" y1="47.028" x1="25.058" gradientUnits="userSpaceOnUse" id="j" xlink:href="#g"/><linearGradient id="g"><stop offset="0" stop-color="#181818" stop-opacity="0"/><stop offset=".5" stop-color="#181818"/><stop offset="1" stop-color="#181818" stop-opacity="0"/></linearGradient></defs><g transform="translate(0 -8)"><g transform="matrix(.579 0 0 .428 -1.895 10.861)" opacity=".4"><rect width="5" height="7" x="38" y="40" fill="url(#h)"/><rect width="5" height="7" x="-10" y="-47" transform="scale(-1)" fill="url(#i)"/><rect width="28" height="7" x="10" y="40" fill="url(#j)"/></g><rect width="19" height="19" rx="1" ry="1" x="2.5" y="10.5" color="#000" fill="url(#k)" stroke="url(#l)" stroke-linecap="round" stroke-linejoin="round" overflow="visible" enable-background="accumulate"/><rect width="17" height="17" x="3.501" y="11.499" opacity=".5" stroke="url(#m)" stroke-linecap="round" stroke-linejoin="round" fill="none"/><path d="M11.5 15c-.277 0-.5.223-.5.5v1.125c-.503.114-.967.311-1.391.578l-.797-.797c-.196-.196-.507-.196-.703 0l-.703.703c-.196.196-.196.507 0 .703l.797.797c-.267.423-.464.888-.578 1.391h-1.125c-.277 0-.5.223-.5.5v1c0 .277.223.5.5.5h1.125c.114.503.311.967.578 1.391l-.797.797c-.196.196-.196.507 0 .703l.703.703c.196.196.507.196.703 0l.797-.797c.423.267.888.464 1.391.578v1.125c0 .277.223.5.5.5h1c.277 0 .5-.223.5-.5v-1.125c.503-.114.967-.311 1.391-.578l.797.797c.196.196.507.196.703 0l.703-.703c.196-.196.196-.507 0-.703l-.797-.797c.267-.423.464-.888.578-1.391h1.125c.277 0 .5-.223.5-.5v-1c0-.277-.223-.5-.5-.5h-1.125c-.114-.503-.311-.967-.578-1.391l.797-.797c.196-.196.196-.507 0-.703l-.703-.703c-.196-.196-.507-.196-.703 0l-.797.797c-.423-.267-.888-.464-1.391-.578v-1.125c0-.277-.223-.5-.5-.5h-1zm.5 4c1.104 0 2 .896 2 2s-.896 2-2 2-2-.896-2-2 .896-2 2-2z" opacity=".4" fill="#fff" overflow="visible" enable-background="accumulate"/><path d="M11.5 14c-.277 0-.5.223-.5.5v1.125c-.503.114-.967.311-1.391.578l-.797-.797c-.196-.196-.507-.196-.703 0l-.703.703c-.196.196-.196.507 0 .703l.797.797c-.267.423-.464.888-.578 1.391h-1.125c-.277 0-.5.223-.5.5v1c0 .277.223.5.5.5h1.125c.114.503.311.967.578 1.391l-.797.797c-.196.196-.196.507 0 .703l.703.703c.196.196.507.196.703 0l.797-.797c.423.267.888.464 1.391.578v1.125c0 .277.223.5.5.5h1c.277 0 .5-.223.5-.5v-1.125c.503-.114.967-.311 1.391-.578l.797.797c.196.196.507.196.703 0l.703-.703c.196-.196.196-.507 0-.703l-.797-.797c.267-.423.464-.888.578-1.391h1.125c.277 0 .5-.223.5-.5v-1c0-.277-.223-.5-.5-.5h-1.125c-.114-.503-.311-.967-.578-1.391l.797-.797c.196-.196.196-.507 0-.703l-.703-.703c-.196-.196-.507-.196-.703 0l-.797.797c-.423-.267-.888-.464-1.391-.578v-1.125c0-.277-.223-.5-.5-.5h-1zm.5 4c1.104 0 2 .896 2 2s-.896 2-2 2-2-.896-2-2 .896-2 2-2z" fill="url(#n)" overflow="visible" enable-background="accumulate"/><path d="M11.531 14.531c-.024.431.051.876-.045 1.297-.195.405-.732.316-1.063.543-.348.137-.719.559-1.107.278-.293-.267-.563-.559-.847-.836l-.656.656c.292.323.658.59.895.955.157.436-.304.757-.404 1.151-.165.332-.138.89-.611.951-.386.013-.774.002-1.16.005v.938c.431.024.876-.051 1.297.045.411.201.319.748.545 1.087.13.353.557.724.276 1.114-.265.285-.56.542-.836.816l.656.656c.323-.281.594-.633.955-.863.428-.156.745.295 1.138.381.34.153.901.127.964.604.013.386.002.774.005 1.16h.938c.024-.431-.051-.876.045-1.297.202-.414.752-.319 1.1-.532.352-.119.718-.537 1.102-.257.282.257.542.538.816.805l.656-.656c-.281-.313-.638-.569-.863-.924-.155-.431.3-.752.378-1.151.154-.345.123-.917.606-.982.386-.013.774-.002 1.16-.005v-.938c-.431-.024-.876.051-1.297-.045-.409-.197-.316-.736-.53-1.076-.126-.347-.539-.713-.26-1.094.259-.29.538-.564.805-.847l-.656-.656c-.297.285-.55.623-.876.873-.419.213-.756-.241-1.133-.347-.34-.201-.919-.126-1.038-.596-.036-.401-.006-.808-.016-1.212h-.938z" opacity=".1" stroke="url(#o)" stroke-linejoin="round" overflow="visible" enable-background="accumulate" fill="none"/><path d="M12 22.538c1.443.037 2.705-1.355 2.518-2.788-.112-1.436-1.618-2.555-3.025-2.222-1.416.256-2.383 1.86-1.91 3.228.314 1.034 1.332 1.796 2.416 1.783z" opacity=".1" stroke="url(#p)" stroke-linejoin="round" overflow="visible" enable-background="accumulate" fill="none"/></g></svg>