<svg xmlns="http://www.w3.org/2000/svg" xmlns:xlink="http://www.w3.org/1999/xlink" version="1" width="24" height="24"><defs><linearGradient id="g"><stop offset="0" stop-opacity="0"/><stop offset=".5"/><stop offset="1" stop-opacity="0"/></linearGradient><linearGradient id="f"><stop offset="0"/><stop offset="1" stop-opacity="0"/></linearGradient><linearGradient id="e"><stop offset="0" stop-color="#aaa"/><stop offset="1" stop-color="#c8c8c8"/></linearGradient><linearGradient id="d"><stop offset="0" stop-color="#f4f4f4"/><stop offset="1" stop-color="#dbdbdb"/></linearGradient><radialGradient cx="102" cy="112.305" r="139.559" id="c" gradientUnits="userSpaceOnUse"><stop offset="0" stop-color="#b7b8b9"/><stop offset=".174" stop-color="#ececec"/><stop offset=".239" stop-color="#fafafa" stop-opacity="0"/><stop offset=".301" stop-color="#fff" stop-opacity="0"/><stop offset=".531" stop-color="#fafafa" stop-opacity="0"/><stop offset=".845" stop-color="#ebecec" stop-opacity="0"/><stop offset="1" stop-color="#e1e2e3" stop-opacity="0"/></radialGradient><linearGradient id="b"><stop offset="0" stop-color="#fff"/><stop offset="1" stop-color="#fff" stop-opacity="0"/></linearGradient><linearGradient id="a"><stop offset="0" stop-color="#fefefe"/><stop offset="1" stop-color="#cbcbcb"/></linearGradient><linearGradient x1="32.892" y1="8.059" x2="36.358" y2="5.457" id="A" xlink:href="#a" gradientUnits="userSpaceOnUse" gradientTransform="matrix(.478 0 0 .552 .372 -.076)"/><linearGradient x1="24" y1="2" x2="24" y2="46.017" id="z" xlink:href="#b" gradientUnits="userSpaceOnUse" gradientTransform="matrix(.455 0 0 .465 1.091 .337)"/><radialGradient cx="92.09" cy="102.703" r="139.559" fx="92.09" fy="102.703" id="y" xlink:href="#c" gradientUnits="userSpaceOnUse" gradientTransform="matrix(.17 0 0 -.191 1.106 23.717)"/><linearGradient x1="25.132" y1=".985" x2="25.132" y2="47.013" id="w" xlink:href="#d" gradientUnits="userSpaceOnUse" gradientTransform="matrix(.486 0 0 .478 .343 -.706)"/><linearGradient x1="-51.786" y1="50.786" x2="-51.786" y2="2.906" id="x" xlink:href="#e" gradientUnits="userSpaceOnUse" gradientTransform="matrix(.392 0 0 .447 29.199 -1.239)"/><radialGradient cx="605.714" cy="486.648" r="117.143" fx="605.714" fy="486.648" id="v" xlink:href="#f" gradientUnits="userSpaceOnUse" gradientTransform="matrix(.012 0 0 .008 13.239 18.981)"/><radialGradient cx="605.714" cy="486.648" r="117.143" fx="605.714" fy="486.648" id="u" xlink:href="#f" gradientUnits="userSpaceOnUse" gradientTransform="matrix(-.012 0 0 .008 10.761 18.981)"/><linearGradient x1="302.857" y1="366.648" x2="302.857" y2="609.505" id="t" xlink:href="#g" gradientUnits="userSpaceOnUse" gradientTransform="matrix(.035 0 0 .008 -.725 18.981)"/><linearGradient x1="-125.599" y1="77.09" x2="-125.47" y2="83.734" id="L" xlink:href="#h" gradientUnits="userSpaceOnUse" gradientTransform="matrix(.301 0 0 .223 45.306 -4.145)"/><linearGradient id="h"><stop offset="0" stop-color="#a3b7e6"/><stop offset=".121" stop-color="#a6bef8"/><stop offset="1" stop-color="#6588dd"/></linearGradient><linearGradient x1="-122.152" y1="75.477" x2="-122.151" y2="83.734" id="M" xlink:href="#i" gradientUnits="userSpaceOnUse" gradientTransform="matrix(.301 0 0 .223 45.306 -4.145)"/><linearGradient id="i"><stop offset="0" stop-color="#93a1c1"/><stop offset=".084" stop-color="#9dadd7"/><stop offset=".149" stop-color="#9fb2e3"/><stop offset=".864" stop-color="#607fcb"/><stop offset=".871" stop-color="#f2f2f2" stop-opacity=".569"/><stop offset="1" stop-color="#f2f2f2" stop-opacity=".509"/></linearGradient><linearGradient x1="-125.599" y1="76.398" x2="-125.471" y2="83.957" id="J" xlink:href="#j" gradientUnits="userSpaceOnUse" gradientTransform="matrix(.301 0 0 .223 45.306 1.806)"/><linearGradient id="j"><stop offset="0" stop-color="#c9b1d6"/><stop offset=".121" stop-color="#d4b5e7"/><stop offset="1" stop-color="#a97cc4"/></linearGradient><linearGradient x1="-122.152" y1="75.477" x2="-122.152" y2="83.957" id="K" xlink:href="#k" gradientUnits="userSpaceOnUse" gradientTransform="matrix(.301 0 0 .223 45.306 1.806)"/><linearGradient id="k"><stop offset="0" stop-color="#ad9eb6"/><stop offset=".084" stop-color="#bdaaca"/><stop offset=".149" stop-color="#c6add4"/><stop offset=".866" stop-color="#9e75b5"/><stop offset=".876" stop-color="#f2f2f2" stop-opacity=".5"/><stop offset="1" stop-color="#f2f2f2" stop-opacity=".5"/></linearGradient><linearGradient x1="-125.599" y1="76.398" x2="-125.471" y2="83.845" id="H" xlink:href="#l" gradientUnits="userSpaceOnUse" gradientTransform="matrix(.301 0 0 .223 45.306 -1.17)"/><linearGradient id="l"><stop offset="0" stop-color="#b4a9e1"/><stop offset=".121" stop-color="#b8aaf4"/><stop offset="1" stop-color="#806cd5"/></linearGradient><linearGradient x1="-122.152" y1="75.477" x2="-122.152" y2="83.845" id="I" xlink:href="#m" gradientUnits="userSpaceOnUse" gradientTransform="matrix(.301 0 0 .223 45.306 -1.17)"/><linearGradient id="m"><stop offset="0" stop-color="#9e98be"/><stop offset=".084" stop-color="#aba1d3"/><stop offset=".149" stop-color="#afa3df"/><stop offset=".866" stop-color="#7966c3"/><stop offset=".876" stop-color="#f2f2f2" stop-opacity=".569"/><stop offset="1" stop-color="#f2f2f2" stop-opacity=".56"/></linearGradient><linearGradient x1="-125.599" y1="76.398" x2="-125.471" y2="83.622" id="F" xlink:href="#n" gradientUnits="userSpaceOnUse" gradientTransform="matrix(.301 0 0 .223 45.306 -7.12)"/><linearGradient id="n"><stop offset="0" stop-color="#a7d3e1"/><stop offset=".121" stop-color="#a9dff4"/><stop offset="1" stop-color="#6cbad5"/></linearGradient><linearGradient x1="-122.152" y1="75.477" x2="-122.152" y2="83.622" id="G" xlink:href="#o" gradientUnits="userSpaceOnUse" gradientTransform="matrix(.301 0 0 .223 45.306 -7.12)"/><linearGradient id="o"><stop offset="0" stop-color="#97b3be"/><stop offset=".084" stop-color="#a0c7d4"/><stop offset=".149" stop-color="#a1d0df"/><stop offset=".865" stop-color="#66adc3"/><stop offset=".874" stop-color="#f2f2f2" stop-opacity=".517"/><stop offset="1" stop-color="#f2f2f2" stop-opacity=".543"/></linearGradient><linearGradient x1="-125.599" y1="77.09" x2="-125.47" y2="83.399" id="D" xlink:href="#p" gradientUnits="userSpaceOnUse" gradientTransform="matrix(.301 0 0 .223 45.306 -13.07)"/><linearGradient id="p"><stop offset="0" stop-color="#e4d7a4"/><stop offset=".204" stop-color="#f6e7a6"/><stop offset="1" stop-color="#dbc465"/></linearGradient><linearGradient x1="-122.152" y1="75.477" x2="-122.151" y2="83.399" id="E" xlink:href="#q" gradientUnits="userSpaceOnUse" gradientTransform="matrix(.301 0 0 .223 45.306 -13.07)"/><linearGradient id="q"><stop offset="0" stop-color="#b5ac86"/><stop offset=".139" stop-color="#d6ca9e"/><stop offset=".313" stop-color="#e2d49f"/><stop offset=".863" stop-color="#cab560"/><stop offset=".875" stop-color="#f2f2f2" stop-opacity=".483"/><stop offset="1" stop-color="#f2f2f2" stop-opacity=".578"/></linearGradient><linearGradient id="r"><stop offset="0" stop-color="#c5cfb9"/><stop offset=".121" stop-color="#cfddc0"/><stop offset="1" stop-color="#a3b68a"/></linearGradient><linearGradient id="s"><stop offset="0" stop-color="#abb1a5"/><stop offset=".084" stop-color="#bac4b0"/><stop offset=".149" stop-color="#c2cbb6"/><stop offset=".862" stop-color="#97a884"/><stop offset=".883" stop-color="#f2f2f2" stop-opacity=".526"/><stop offset="1" stop-color="#f2f2f2" stop-opacity=".509"/></linearGradient><linearGradient x1="-125.599" y1="76.398" x2="-125.471" y2="83.51" id="B" xlink:href="#r" gradientUnits="userSpaceOnUse" gradientTransform="matrix(.301 0 0 .223 45.306 -10.095)"/><linearGradient x1="-122.152" y1="75.477" x2="-122.152" y2="83.51" id="C" xlink:href="#s" gradientUnits="userSpaceOnUse" gradientTransform="matrix(.301 0 0 .223 45.306 -10.095)"/></defs><rect width="17" height="2" x="3.5" y="22" opacity=".15" fill="url(#t)" overflow="visible"/><path d="M3.5 22v2c-.62.004-1.5-.448-1.5-1s.692-1 1.5-1z" opacity=".15" fill="url(#u)" overflow="visible"/><path d="M20.5 22v2c.62.004 1.5-.448 1.5-1s-.692-1-1.5-1z" opacity=".15" fill="url(#v)" overflow="visible"/><path d="M3.5.5h11.5c.683.237 4.541 3.128 5.5 5v17h-17v-22z" fill="url(#w)" stroke="url(#x)" stroke-linejoin="round"/><path d="M4.17 22c-.094 0-.17-.086-.17-.191v-20.598c0-.105.076-.191.17-.191 3.521.053 7.424-.079 10.941.013l4.839 4.327.05 16.448c0 .105-.076.191-.17.191h-15.66z" fill="url(#y)"/><path d="M19.5 5.677v15.823h-15v-20h10.394" opacity=".6" stroke="url(#z)" fill="none"/><path d="M14.075 1c1.156.329.339 4.614.339 4.614s4.515-.428 5.608 1.195c1.489 2.212-.068-.635-.173-.822-.756-1.34-3.866-4.547-5.045-4.941-.088-.029-.284-.046-.728-.046z" opacity=".2" fill-rule="evenodd"/><path d="M14 1c1.526 0 1 4 1 4s4.992-.453 4.992 2c0-.598.056-1.478-.064-1.656-.839-1.243-3.744-3.862-4.798-4.298-.086-.036-.686-.046-1.13-.046z" fill="url(#A)" fill-rule="evenodd"/><rect width="2" height="2" rx="0" ry="0" x="6.5" y="6.5" fill="url(#B)" stroke="url(#C)"/><rect width="2" height="2" rx="0" ry="0" x="6.5" y="3.5" fill="url(#D)" stroke="url(#E)"/><rect width="2" height="2" rx="0" ry="0" x="6.5" y="9.5" fill="url(#F)" stroke="url(#G)"/><rect width="2" height="2" rx="0" ry="0" x="6.5" y="15.5" fill="url(#H)" stroke="url(#I)"/><rect width="2" height="2" rx="0" ry="0" x="6.5" y="18.5" fill="url(#J)" stroke="url(#K)"/><rect width="2" height="2" rx="0" ry="0" x="6.5" y="12.5" fill="url(#L)" stroke="url(#M)"/></svg>