<svg xmlns="http://www.w3.org/2000/svg" xmlns:xlink="http://www.w3.org/1999/xlink" version="1" width="24" height="24"><defs><linearGradient id="a"><stop offset="0" stop-opacity="0"/><stop offset=".5"/><stop offset="1" stop-opacity="0"/></linearGradient><linearGradient x1="302.857" y1="366.648" x2="302.857" y2="609.505" id="l" xlink:href="#a" gradientUnits="userSpaceOnUse" gradientTransform="matrix(.035 0 0 .008 -.725 18.981)"/><radialGradient cx="605.714" cy="486.648" r="117.143" fx="605.714" fy="486.648" id="m" xlink:href="#b" gradientUnits="userSpaceOnUse" gradientTransform="matrix(-.012 0 0 .008 10.761 18.981)"/><linearGradient id="b"><stop offset="0"/><stop offset="1" stop-opacity="0"/></linearGradient><radialGradient cx="605.714" cy="486.648" r="117.143" fx="605.714" fy="486.648" id="n" xlink:href="#b" gradientUnits="userSpaceOnUse" gradientTransform="matrix(.012 0 0 .008 13.239 18.981)"/><linearGradient id="c"><stop offset="0" stop-color="#425a2d"/><stop offset="1" stop-color="#7f956d"/></linearGradient><linearGradient x1="-51.786" y1="53.624" x2="-51.786" y2="2.906" id="p" xlink:href="#c" gradientUnits="userSpaceOnUse" gradientTransform="matrix(.392 0 0 .447 29.199 -1.239)"/><linearGradient id="d"><stop offset="0" stop-color="#b5cc85"/><stop offset=".262" stop-color="#9abe74"/><stop offset=".705" stop-color="#669f4d"/><stop offset="1" stop-color="#47892b"/></linearGradient><radialGradient cx="14.239" cy="11.49" r="18" fx="14.239" fy="11.49" id="o" xlink:href="#d" gradientUnits="userSpaceOnUse" gradientTransform="matrix(0 1.589 -2.574 0 36.379 -19.498)"/><linearGradient id="e"><stop offset="0" stop-color="#fff"/><stop offset="1" stop-color="#fff" stop-opacity="0"/></linearGradient><linearGradient x1="24" y1="2" x2="24" y2="46.017" id="q" xlink:href="#e" gradientUnits="userSpaceOnUse" gradientTransform="matrix(.455 0 0 .465 1.091 .337)"/><linearGradient id="f"><stop offset="0" stop-color="#fefefe"/><stop offset="1" stop-color="#cbcbcb"/></linearGradient><linearGradient x1="32.892" y1="8.059" x2="36.358" y2="5.457" id="r" xlink:href="#f" gradientUnits="userSpaceOnUse" gradientTransform="matrix(.478 0 0 .552 .372 -.076)"/><linearGradient id="g"><stop offset="0" stop-color="#fff"/><stop offset="1" stop-color="#fff" stop-opacity="0"/></linearGradient><linearGradient x1="16.626" y1="15.298" x2="20.055" y2="24.628" id="s" xlink:href="#g" gradientUnits="userSpaceOnUse" gradientTransform="matrix(.348 0 0 .697 3.641 -3.159)"/><linearGradient id="h"><stop offset="0"/><stop offset="1" stop-opacity="0"/></linearGradient><linearGradient x1="75.854" y1="28" x2="91" y2="12" id="t" xlink:href="#h" gradientUnits="userSpaceOnUse" gradientTransform="matrix(.559 0 0 .474 -29.222 2.37)" spreadMethod="reflect"/><linearGradient id="i"><stop offset="0" stop-color="#fff"/><stop offset="1" stop-color="#fff" stop-opacity="0"/></linearGradient><linearGradient x1="75.854" y1="28" x2="91" y2="12" id="u" xlink:href="#i" gradientUnits="userSpaceOnUse" gradientTransform="matrix(.559 0 0 .474 -29.161 1.312)" spreadMethod="reflect"/><linearGradient id="j"><stop offset="0"/><stop offset="1" stop-opacity="0"/></linearGradient><linearGradient x1="-43.305" y1="34.497" x2="-25.366" y2="20.127" id="v" xlink:href="#j" gradientUnits="userSpaceOnUse" gradientTransform="matrix(.471 0 0 .5 33.437 -1.506)" spreadMethod="reflect"/><linearGradient id="k"><stop offset="0" stop-color="#355129"/><stop offset="1" stop-color="#7c8763"/></linearGradient><linearGradient x1="24.239" y1="44.11" x2="24.239" y2=".191" id="w" xlink:href="#k" gradientUnits="userSpaceOnUse" gradientTransform="matrix(.523 0 0 .505 1.721 -.5)"/></defs><g><rect width="17" height="2" x="3.5" y="22" opacity=".15" fill="url(#l)" overflow="visible"/><path d="M3.5 22v2c-.62.004-1.5-.448-1.5-1s.692-1 1.5-1z" opacity=".15" fill="url(#m)" overflow="visible"/><path d="M20.5 22v2c.62.004 1.5-.448 1.5-1s-.692-1-1.5-1z" opacity=".15" fill="url(#n)" overflow="visible"/><path d="M3.5.5h11.5c.683.237 4.541 3.128 5.5 5v17h-17v-22z" fill="url(#o)" stroke="url(#p)" stroke-linejoin="round" overflow="visible" enable-background="accumulate"/><path d="M19.5 5.677v15.823h-15v-20h10.394" opacity=".4" stroke="url(#q)" fill="none"/><path d="M14.075 1c1.156.329.339 4.614.339 4.614s4.515-.428 5.608 1.195c1.489 2.212-.068-.635-.173-.822-.756-1.34-3.866-4.547-5.045-4.941-.088-.029-.284-.046-.728-.046z" opacity=".2" fill-rule="evenodd"/><path d="M14 1c1.526 0 1 4 1 4s4.992-.453 4.992 2c0-.598.056-1.478-.064-1.656-.839-1.243-3.744-3.862-4.798-4.298-.086-.036-.686-.046-1.13-.046z" fill="url(#r)" fill-rule="evenodd"/><path d="M4.762 1c-.421 0-.762.682-.762 1.524v11.148c.001.094.022.182.057.245.035.062.082.092.128.082l15.673-4.964c.081-.025.14-.163.141-.327v-3l-5.098-4.707h-10.14z" opacity=".2" fill="url(#s)" fill-rule="evenodd"/><path d="M9.606 7l-5.606 7.928v8.072h13.318l2.682-3.787v-7.318l-10.394-4.895z" opacity=".1" fill="url(#t)" overflow="visible" enable-background="accumulate"/><path d="M9.606 6l-5.606 7.928v8.072h13.318l2.682-3.787v-7.318l-10.394-4.895z" opacity=".4" fill="url(#u)" overflow="visible" enable-background="accumulate"/><path d="M10.025 9.541l-.588.781 3.118 1.469.588-.781-3.118-1.469zm-1.176 1.547l-.588.781 3.118 1.469.588-.781-3.118-1.469zm5.191.344l-.588.781 3.118 1.469.588-.781-3.118-1.469zm-6.368 1.219l-.603.781 3.118 1.469.603-.781-3.118-1.469zm5.191.328l-.588.781 3.118 1.469.588-.781-3.118-1.469zm5.191.344l-.603.766 2.309 1.094v-1.063l-1.706-.797zm-11.574.891l-.588.766 3.118 1.469.588-.766-3.118-1.469zm5.206.328l-.603.781 3.118 1.469.603-.781-3.118-1.469zm5.176.328l-.588.781 3.118 1.469.368-.484v-.406l-2.897-1.359zm-11.559.891l-.588.781 3.118 1.469.588-.781-3.118-1.469zm5.191.344l-.588.766 3.118 1.469.588-.766-3.118-1.469zm5.191.328l-.588.766 3.118 1.469.588-.766-3.118-1.469zm-11.456.953v1.047l2.412 1.141.588-.781-3-1.406zm5.088.266l-.588.781 3.118 1.469.588-.781-3.118-1.469zm5.176.328l-.588.781 3.118 1.469.588-.781-3.118-1.469zm-6.368 1.234l-.588.781 3.118 1.469.588-.781-3.118-1.469zm-3.897.266v1.063l1.235.578.588-.781-1.824-.859zm9.088.062l-.588.781 3.118 1.469.588-.781-3.118-1.469zm-6.368 1.219l-.588.781 1.529.719h2.147l.029-.031-3.118-1.469zm5.191.328l-.603.781.824.391h2.265l-2.485-1.172zm-7.912.5v.672h.368l.279-.359-.647-.313z" opacity=".1" fill="url(#v)" fill-rule="evenodd" overflow="visible" enable-background="accumulate"/><path d="M17 18h-2.757l-2.329-4.161-2.329 4.161h-2.586l3.458-5.673-3.217-5.327h2.664l2.134 3.958 2.087-3.958h2.601l-3.255 5.455 3.528 5.545z" style="-inkscape-font-specification:Droid Sans Bold" font-size="31.355" font-weight="bold" opacity=".4" fill="#fff" font-family="Droid Sans"/><path d="M17 17h-2.757l-2.329-4.161-2.329 4.161h-2.586l3.458-5.673-3.217-5.327h2.664l2.134 3.958 2.087-3.958h2.601l-3.255 5.455 3.528 5.545z" style="-inkscape-font-specification:Droid Sans Bold" font-size="31.355" font-weight="bold" fill="url(#w)" font-family="Droid Sans"/></g></svg>