<svg xmlns="http://www.w3.org/2000/svg" xmlns:xlink="http://www.w3.org/1999/xlink" width="24" height="24"><defs><linearGradient xlink:href="#a" gradientUnits="userSpaceOnUse" gradientTransform="matrix(.391 0 0 .47 2.665 8.442)" x1="24" y1="14.916" x2="24" y2="32.596"/><linearGradient id="a"><stop offset="0" stop-color="#fff"/><stop offset=".123" stop-color="#fff" stop-opacity=".235"/><stop offset=".937" stop-color="#fff" stop-opacity=".157"/><stop offset="1" stop-color="#fff" stop-opacity=".392"/></linearGradient><radialGradient xlink:href="#b" gradientUnits="userSpaceOnUse" gradientTransform="matrix(0 .746 -.679 0 18.739 5.819)" cx="10.904" cy="8.45" fx="10.904" fy="8.45" r="20"/><linearGradient id="b"><stop offset="0" stop-color="#5f5f5f"/><stop offset=".262" stop-color="#4f4f4f"/><stop offset=".705" stop-color="#3b3b3b"/><stop offset="1" stop-color="#2b2b2b"/></linearGradient><linearGradient xlink:href="#c" gradientUnits="userSpaceOnUse" gradientTransform="matrix(.537 0 0 .53 .116 7.03)" x1="24" y1="44" x2="24" y2="3.899"/><linearGradient id="c"><stop offset="0" stop-color="#272727"/><stop offset="1" stop-color="#454545"/></linearGradient><linearGradient xlink:href="#d" id="H" gradientUnits="userSpaceOnUse" gradientTransform="matrix(.405 0 0 .459 2.27 8.973)" x1="24" y1="4.431" x2="24.107" y2="43.758"/><linearGradient id="d"><stop offset="0" stop-color="#fff"/><stop offset=".062" stop-color="#fff" stop-opacity=".235"/><stop offset=".933" stop-color="#fff" stop-opacity=".157"/><stop offset="1" stop-color="#fff" stop-opacity=".392"/></linearGradient><radialGradient xlink:href="#e" id="F" gradientUnits="userSpaceOnUse" gradientTransform="matrix(0 1.139 -.989 0 19.656 2.249)" cx="7.496" cy="8.45" fx="7.496" fy="8.45" r="20"/><linearGradient id="e"><stop offset="0" stop-color="#5f5f5f"/><stop offset=".262" stop-color="#4f4f4f"/><stop offset=".705" stop-color="#3b3b3b"/><stop offset="1" stop-color="#2b2b2b"/></linearGradient><linearGradient xlink:href="#f" id="G" gradientUnits="userSpaceOnUse" gradientTransform="matrix(.4 0 0 .487 1.7 8.307)" x1="24" y1="44" x2="24" y2="3.899"/><linearGradient id="f"><stop offset="0" stop-color="#272727"/><stop offset="1" stop-color="#454545"/></linearGradient><radialGradient xlink:href="#g" id="D" gradientUnits="userSpaceOnUse" gradientTransform="matrix(0 1.271 -1.497 0 22.453 -20.791)" cx="24.502" cy="6.648" fx="24.502" fy="6.648" r="17.498"/><linearGradient><stop offset="0" stop-color="#ddcfbd"/><stop offset="1" stop-color="#856f50"/></linearGradient><linearGradient xlink:href="#h" id="E" gradientUnits="userSpaceOnUse" gradientTransform="matrix(.33 0 0 .341 1.954 8.826)" x1="32.901" y1="4.648" x2="32.901" y2="61.482"/><linearGradient><stop offset="0" stop-color="#a79071"/><stop offset="1" stop-color="#6f5d45"/></linearGradient><linearGradient xlink:href="#i" id="B" gradientUnits="userSpaceOnUse" x1="10.654" y1="1" x2="10.654" y2="3" gradientTransform="matrix(.4 0 0 .5 .9 8.25)"/><linearGradient id="i"><stop offset="0" stop-color="#eee"/><stop offset="1" stop-color="#d9d9da"/></linearGradient><linearGradient xlink:href="#j" id="C" gradientUnits="userSpaceOnUse" gradientTransform="matrix(.4 0 0 .051 1.7 8.269)" x1="24" y1="44" x2="24" y2="3.899"/><linearGradient id="j"><stop offset="0" stop-color="#272727"/><stop offset="1" stop-color="#454545"/></linearGradient><linearGradient xlink:href="#i" id="z" gradientUnits="userSpaceOnUse" gradientTransform="matrix(.526 0 0 1.016 -.258 5.508)" x1="24.64" y1="3.381" x2="24.64" y2="4.497"/><linearGradient xlink:href="#k" id="A" gradientUnits="userSpaceOnUse" gradientTransform="matrix(.375 0 0 .494 .229 8.144)" x1="10.199" y1=".065" x2="54.887" y2=".065"/><linearGradient><stop offset="0" stop-color="#9b876c"/><stop offset=".934" stop-color="#9b876c"/><stop offset=".942" stop-color="#c2c2c2"/><stop offset="1" stop-color="#c2c2c2"/></linearGradient><radialGradient r="2.5" fy="43.5" fx="4.993" cy="43.5" cx="4.993" gradientTransform="matrix(2.004 0 0 1.4 27.988 -17.4)" gradientUnits="userSpaceOnUse" id="w" xlink:href="#l"/><linearGradient id="l"><stop offset="0" stop-color="#181818"/><stop offset="1" stop-color="#181818" stop-opacity="0"/></linearGradient><radialGradient r="2.5" fy="43.5" fx="4.993" cy="43.5" cx="4.993" gradientTransform="matrix(2.004 0 0 1.4 -20.012 -104.4)" gradientUnits="userSpaceOnUse" id="x" xlink:href="#m"/><linearGradient id="m"><stop offset="0" stop-color="#181818"/><stop offset="1" stop-color="#181818" stop-opacity="0"/></linearGradient><linearGradient y2="39.999" x2="25.058" y1="47.028" x1="25.058" gradientUnits="userSpaceOnUse" id="y" xlink:href="#n"/><linearGradient id="n"><stop offset="0" stop-color="#181818" stop-opacity="0"/><stop offset=".5" stop-color="#181818"/><stop offset="1" stop-color="#181818" stop-opacity="0"/></linearGradient><linearGradient xlink:href="#o" gradientUnits="userSpaceOnUse" gradientTransform="matrix(.892 0 0 1.054 42.097 -20.232)" x1="24" y1="5" x2="24" y2="43"/><linearGradient id="o"><stop offset="0" stop-color="#fff"/><stop offset=".027" stop-color="#fff" stop-opacity=".235"/><stop offset=".974" stop-color="#fff" stop-opacity=".157"/><stop offset="1" stop-color="#fff" stop-opacity=".392"/></linearGradient><radialGradient xlink:href="#p" gradientUnits="userSpaceOnUse" gradientTransform="matrix(0 2.457 -2.472 0 86.393 -33.238)" cx="7.496" cy="8.45" fx="7.496" fy="8.45" r="20"/><linearGradient id="p"><stop offset="0" stop-color="#5f5f5f"/><stop offset=".262" stop-color="#4f4f4f"/><stop offset=".705" stop-color="#3b3b3b"/><stop offset="1" stop-color="#2b2b2b"/></linearGradient><linearGradient xlink:href="#q" gradientUnits="userSpaceOnUse" gradientTransform="matrix(1 0 0 1.051 41.502 -20.166)" x1="24" y1="44" x2="24" y2="3.899"/><linearGradient id="q"><stop offset="0" stop-color="#272727"/><stop offset="1" stop-color="#454545"/></linearGradient><radialGradient xlink:href="#g" gradientUnits="userSpaceOnUse" gradientTransform="matrix(0 2.745 -3.183 0 85.166 -83.006)" cx="24.502" cy="6.648" fx="24.502" fy="6.648" r="17.498"/><linearGradient id="g"><stop offset="0" stop-color="#c4ea71"/><stop offset="1" stop-color="#7c9d35"/></linearGradient><linearGradient xlink:href="#h" gradientUnits="userSpaceOnUse" gradientTransform="matrix(.701 0 0 .737 41.581 -19.059)" x1="32.901" y1="4.648" x2="32.901" y2="61.482"/><linearGradient id="h"><stop offset="0" stop-color="#96bf3e"/><stop offset="1" stop-color="#4d6b0d"/></linearGradient><linearGradient gradientTransform="translate(39.502 -18.935)" xlink:href="#r" gradientUnits="userSpaceOnUse" x1="10.654" y1="1" x2="10.654" y2="3"/><linearGradient id="r"><stop offset="0" stop-color="#eee"/><stop offset="1" stop-color="#d9d9da"/></linearGradient><linearGradient xlink:href="#s" gradientUnits="userSpaceOnUse" gradientTransform="matrix(1 0 0 .103 41.503 -18.896)" x1="24" y1="44" x2="24" y2="3.899"/><linearGradient id="s"><stop offset="0" stop-color="#272727"/><stop offset="1" stop-color="#454545"/></linearGradient><linearGradient xlink:href="#r" gradientUnits="userSpaceOnUse" gradientTransform="matrix(1.004 0 0 1.538 40.726 -22.975)" x1="24.627" y1="3.123" x2="24.64" y2="4.883"/><linearGradient><stop offset="0" stop-color="#eee"/><stop offset="1" stop-color="#d9d9da"/></linearGradient><linearGradient xlink:href="#h" gradientUnits="userSpaceOnUse" gradientTransform="matrix(.716 0 0 .747 41.657 -18.987)" x1="5.212" y1=".065" x2="54.887" y2=".065"/><linearGradient id="k"><stop offset="0" stop-color="#96bf3e"/><stop offset="1" stop-color="#4d6b0d"/></linearGradient><radialGradient cx="4.993" cy="43.5" r="2.5" fx="4.993" fy="43.5" xlink:href="#t" gradientUnits="userSpaceOnUse" gradientTransform="matrix(2.004 0 0 1.4 27.988 -17.4)"/><linearGradient id="t"><stop offset="0" stop-color="#181818"/><stop offset="1" stop-color="#181818" stop-opacity="0"/></linearGradient><radialGradient cx="4.993" cy="43.5" r="2.5" fx="4.993" fy="43.5" xlink:href="#u" gradientUnits="userSpaceOnUse" gradientTransform="matrix(2.004 0 0 1.4 -20.012 -104.4)"/><linearGradient id="u"><stop offset="0" stop-color="#181818"/><stop offset="1" stop-color="#181818" stop-opacity="0"/></linearGradient><linearGradient x1="25.058" y1="47.028" x2="25.058" y2="39.999" xlink:href="#v" gradientUnits="userSpaceOnUse"/><linearGradient id="v"><stop offset="0" stop-color="#181818" stop-opacity="0"/><stop offset=".5" stop-color="#181818"/><stop offset="1" stop-color="#181818" stop-opacity="0"/></linearGradient><linearGradient y2="39.999" x2="25.058" y1="47.028" x1="25.058" gradientUnits="userSpaceOnUse" xlink:href="#v"/></defs><g transform="translate(0 -8)"><g transform="matrix(.526 0 0 .428 -.631 10.861)" opacity=".4"><rect width="5" height="7" x="38" y="40" fill="url(#w)"/><rect width="5" height="7" x="-10" y="-47" transform="scale(-1)" fill="url(#x)"/><rect width="28" height="7" x="10" y="40" fill="url(#y)"/></g><path d="M20.491 10.304c-.155-.655-.058-1.171-.144-1.796h-15.839l.093 1.983" fill="url(#z)" stroke="url(#A)" stroke-width="1.017" stroke-linejoin="round" stroke-miterlimit="0"/><path d="M5.5 10.5h-1.6c-.228 0-.4-.021-.4-.049v-1.398c0-.444.224-.553.516-.553h1.484" color="#000" fill="url(#B)" stroke="url(#C)" stroke-linecap="round" stroke-linejoin="round" overflow="visible" enable-background="accumulate"/><rect y="10.51" x="4.51" height="18.981" width="15.981" fill="url(#D)" stroke="url(#E)" stroke-width="1.019" stroke-linecap="round" stroke-linejoin="round" stroke-miterlimit="0"/><path d="M5.5 10.5v19h-1.6c-.228 0-.4-.201-.4-.463v-18.537z" color="#000" fill="url(#F)" stroke="url(#G)" stroke-linecap="round" stroke-linejoin="round" overflow="visible" enable-background="accumulate"/><rect y="11.5" x="4.5" height="17" width="15" opacity=".5" stroke="url(#H)" stroke-linecap="round" stroke-linejoin="round" fill="none"/><path d="M13 24.142l-3.142-3.143 3.142-3.142 1.048 1.047-2.095 2.095 1.047 1.048 3.142-3.142-2.737-2.737c-.224-.224-.586-.224-.81 0l-4.427 4.427c-.224.224-.224.586 0 .81l4.427 4.427c.224.224.586.224.81 0l4.427-4.427c.224-.224.224-.586 0-.81l-.643-.643-4.19 4.19z" opacity=".2"/><path d="M13 23.142l-3.142-3.143 3.142-3.142 1.048 1.047-2.095 2.095 1.047 1.048 3.142-3.142-2.737-2.737c-.224-.224-.586-.224-.81 0l-4.427 4.427c-.224.224-.224.586 0 .81l4.427 4.427c.224.224.586.224.81 0l4.427-4.427c.224-.224.224-.586 0-.81l-.643-.643-4.19 4.19z" fill="#fff"/></g></svg>