<svg xmlns="http://www.w3.org/2000/svg" xmlns:xlink="http://www.w3.org/1999/xlink" version="1" width="24" height="24"><defs><linearGradient id="a"><stop offset="0" stop-opacity="0"/><stop offset=".5"/><stop offset="1" stop-opacity="0"/></linearGradient><linearGradient x1="302.857" y1="366.648" x2="302.857" y2="609.505" id="l" xlink:href="#a" gradientUnits="userSpaceOnUse" gradientTransform="matrix(.035 0 0 .008 -.725 18.981)"/><radialGradient cx="605.714" cy="486.648" r="117.143" fx="605.714" fy="486.648" id="m" xlink:href="#b" gradientUnits="userSpaceOnUse" gradientTransform="matrix(-.012 0 0 .008 10.761 18.981)"/><linearGradient id="b"><stop offset="0"/><stop offset="1" stop-opacity="0"/></linearGradient><radialGradient cx="605.714" cy="486.648" r="117.143" fx="605.714" fy="486.648" id="n" xlink:href="#b" gradientUnits="userSpaceOnUse" gradientTransform="matrix(.012 0 0 .008 13.239 18.981)"/><linearGradient id="c"><stop offset="0" stop-color="#2e4a5a"/><stop offset="1" stop-color="#6e8796"/></linearGradient><linearGradient x1="-51.786" y1="53.624" x2="-51.786" y2="2.906" id="p" xlink:href="#c" gradientUnits="userSpaceOnUse" gradientTransform="matrix(.392 0 0 .447 29.199 -1.239)"/><linearGradient id="d"><stop offset="0" stop-color="#85c2cf"/><stop offset=".262" stop-color="#74a4be"/><stop offset=".705" stop-color="#5177a0"/><stop offset="1" stop-color="#2c5889"/></linearGradient><radialGradient cx="14.239" cy="11.49" r="18" fx="14.239" fy="11.49" id="o" xlink:href="#d" gradientUnits="userSpaceOnUse" gradientTransform="matrix(0 1.589 -2.574 0 36.379 -19.498)"/><linearGradient id="e"><stop offset="0" stop-color="#fff"/><stop offset="1" stop-color="#fff" stop-opacity="0"/></linearGradient><linearGradient x1="24" y1="2" x2="24" y2="46.017" id="q" xlink:href="#e" gradientUnits="userSpaceOnUse" gradientTransform="matrix(.455 0 0 .465 1.091 .337)"/><linearGradient id="f"><stop offset="0" stop-color="#fefefe"/><stop offset="1" stop-color="#cbcbcb"/></linearGradient><linearGradient x1="32.892" y1="8.059" x2="36.358" y2="5.457" id="r" xlink:href="#f" gradientUnits="userSpaceOnUse" gradientTransform="matrix(.478 0 0 .552 .372 -.076)"/><linearGradient id="g"><stop offset="0" stop-color="#fff"/><stop offset="1" stop-color="#fff" stop-opacity="0"/></linearGradient><linearGradient x1="16.626" y1="15.298" x2="20.055" y2="24.628" id="s" xlink:href="#g" gradientUnits="userSpaceOnUse" gradientTransform="matrix(.348 0 0 .697 3.641 -3.159)"/><linearGradient id="h"><stop offset="0"/><stop offset="1" stop-opacity="0"/></linearGradient><linearGradient x1="75.854" y1="28" x2="91" y2="12" id="t" xlink:href="#h" gradientUnits="userSpaceOnUse" gradientTransform="matrix(.559 0 0 .415 -29.133 4.948)" spreadMethod="reflect"/><linearGradient id="i"><stop offset="0" stop-color="#fff"/><stop offset="1" stop-color="#fff" stop-opacity="0"/></linearGradient><linearGradient x1="75.854" y1="28" x2="91" y2="12" id="u" xlink:href="#i" gradientUnits="userSpaceOnUse" gradientTransform="matrix(.559 0 0 .415 -29.161 3.898)" spreadMethod="reflect"/><linearGradient id="j"><stop offset="0"/><stop offset="1" stop-opacity="0"/></linearGradient><linearGradient x1="26.189" y1="30.455" x2="44.25" y2="16.135" id="v" xlink:href="#j" gradientUnits="userSpaceOnUse" gradientTransform="matrix(.46 0 0 .469 .868 1.906)" spreadMethod="reflect"/><linearGradient id="k"><stop offset="0" stop-color="#294351"/><stop offset="1" stop-color="#637a87"/></linearGradient><linearGradient x1="24.239" y1="44.11" x2="24.239" y2=".191" id="w" xlink:href="#k" gradientUnits="userSpaceOnUse" gradientTransform="matrix(.495 0 0 .505 0 -.483)"/></defs><g><rect width="17" height="2" x="3.5" y="22" opacity=".15" fill="url(#l)" overflow="visible"/><path d="M3.5 22v2c-.62.004-1.5-.448-1.5-1s.692-1 1.5-1z" opacity=".15" fill="url(#m)" overflow="visible"/><path d="M20.5 22v2c.62.004 1.5-.448 1.5-1s-.692-1-1.5-1z" opacity=".15" fill="url(#n)" overflow="visible"/><path d="M3.5.5h11.5c.683.237 4.541 3.128 5.5 5v17h-17v-22z" fill="url(#o)" stroke="url(#p)" stroke-linejoin="round" overflow="visible" enable-background="accumulate"/><path d="M19.5 5.677v15.823h-15v-20h10.394" opacity=".4" stroke="url(#q)" fill="none"/><path d="M14.075 1c1.156.329.339 4.614.339 4.614s4.515-.428 5.608 1.195c1.489 2.212-.068-.635-.173-.822-.756-1.34-3.866-4.547-5.045-4.941-.088-.029-.284-.046-.728-.046z" opacity=".2" fill-rule="evenodd"/><path d="M14 1c1.526 0 1 4 1 4s4.992-.453 4.992 2c0-.598.056-1.478-.064-1.656-.839-1.243-3.744-3.862-4.798-4.298-.086-.036-.686-.046-1.13-.046z" fill="url(#r)" fill-rule="evenodd"/><path d="M4.762 1c-.421 0-.762.682-.762 1.524v11.148c.001.094.022.182.057.245.035.062.082.092.128.082l15.673-4.964c.081-.025.14-.163.141-.327v-3l-5.098-4.707h-10.14z" opacity=".2" fill="url(#s)" fill-rule="evenodd"/><path d="M9.695 9l-5.606 6.937v7.063h13.318l2.682-3.314v-6.403l-10.394-4.283z" opacity=".1" fill="url(#t)" overflow="visible" enable-background="accumulate"/><path d="M9.606 8l-5.606 6.937v7.063h13.318l2.682-3.314v-6.403l-10.394-4.283z" opacity=".4" fill="url(#u)" overflow="visible" enable-background="accumulate"/><path d="M9.741 10.467l8.568 3.882-8.568-3.882zm-.913 1.241l9.962 4.514-9.962-4.514zm-.927 1.261l3.188 1.444-3.188-1.444zm-.913 1.241l9.962 4.514-9.962-4.514zm-.927 1.261l8.966 4.063-8.966-4.063zm-.92 1.251l8.169 3.702-8.169-3.702zm-.913 1.241l9.763 4.424-9.763-4.424z" opacity=".1" stroke="url(#v)" fill="none"/><path d="M16.404 18h-2.596c-.477-1.985-.99-3.961-1.442-5.951-.144-.627-.296-1.699-.381-2.086-.276 2.148-.877 4.228-1.369 6.33l-.415 1.708h-2.604l-2.596-10.99h2.25c.601 3.019 1.281 6.022 1.756 9.065.201-1.437.454-2.867.825-4.269l1.167-4.796h2.006c.511 2.12 1.041 4.236 1.539 6.359.177.898.318 1.802.46 2.706.447-2.992 1.129-5.94 1.716-8.906-.012-.288.347-.11.526-.159h1.756l-2.596 10.99z" style="-inkscape-font-specification:Droid Sans Bold" font-size="30.514" font-weight="bold" opacity=".4" fill="#fff" font-family="Droid Sans"/><path d="M16.404 17h-2.596c-.477-1.985-.99-3.961-1.442-5.951-.144-.627-.296-1.699-.381-2.086-.276 2.148-.877 4.228-1.369 6.33l-.415 1.708h-2.604l-2.596-10.99h2.25c.601 3.019 1.281 6.022 1.756 9.065.201-1.437.454-2.867.825-4.269l1.167-4.796h2.006c.511 2.12 1.041 4.236 1.539 6.359.177.898.318 1.802.46 2.706.447-2.992 1.129-5.94 1.716-8.906-.012-.288.347-.11.526-.159h1.756l-2.596 10.99z" style="-inkscape-font-specification:Droid Sans Bold" font-size="30.514" font-weight="bold" fill="url(#w)" font-family="Droid Sans"/></g></svg>