<svg xmlns="http://www.w3.org/2000/svg" xmlns:xlink="http://www.w3.org/1999/xlink" width="24" height="24"><defs><linearGradient x1="26.313" y1="9.827" x2="26.313" y2="23.605" id="v" xlink:href="#a" gradientUnits="userSpaceOnUse" gradientTransform="matrix(.402 0 0 .405 6.041 13.287)"/><linearGradient id="a"><stop offset="0"/><stop offset="1" stop-opacity="0"/></linearGradient><linearGradient x1="26.313" y1="9.827" x2="26.313" y2="23.605" id="u" xlink:href="#b" gradientUnits="userSpaceOnUse" gradientTransform="matrix(.398 0 0 .405 2.244 17.139)"/><linearGradient id="b"><stop offset="0"/><stop offset="1" stop-opacity="0"/></linearGradient><linearGradient x1="26.313" y1="9.827" x2="26.313" y2="23.605" id="t" xlink:href="#c" gradientUnits="userSpaceOnUse" gradientTransform="matrix(.385 0 0 .401 -1.242 13.322)"/><linearGradient id="c"><stop offset="0"/><stop offset="1" stop-opacity="0"/></linearGradient><linearGradient x1="26.313" y1="9.827" x2="26.313" y2="23.605" id="s" xlink:href="#d" gradientUnits="userSpaceOnUse" gradientTransform="matrix(.385 0 0 .391 2.616 9.609)"/><linearGradient id="d"><stop offset="0"/><stop offset="1" stop-opacity="0"/></linearGradient><linearGradient x1="44.228" y1="18.456" x2="16.355" y2="-9.417" id="r" xlink:href="#e" gradientUnits="userSpaceOnUse" gradientTransform="matrix(.341 .345 -.341 .345 .174 7.992)"/><linearGradient id="e"><stop offset="0" stop-color="#505050"/><stop offset="1" stop-color="#8e8e8e"/></linearGradient><linearGradient x1="24" y1="5" x2="24" y2="43" id="q" xlink:href="#f" gradientUnits="userSpaceOnUse" gradientTransform="matrix(.459 0 0 .459 .974 8.972)"/><linearGradient id="f"><stop offset="0" stop-color="#fff"/><stop offset=".063" stop-color="#fff" stop-opacity=".235"/><stop offset=".951" stop-color="#fff" stop-opacity=".157"/><stop offset="1" stop-color="#fff" stop-opacity=".392"/></linearGradient><radialGradient cx="7.496" cy="8.45" r="20" fx="7.496" fy="8.45" id="o" xlink:href="#g" gradientUnits="userSpaceOnUse" gradientTransform="matrix(0 1.139 -1.204 0 22.177 2.25)"/><linearGradient id="g"><stop offset="0" stop-color="#c7c7c7"/><stop offset=".262" stop-color="#a6a6a6"/><stop offset=".705" stop-color="#7b7b7b"/><stop offset="1" stop-color="#595959"/></linearGradient><linearGradient x1="24" y1="44" x2="24" y2="3.899" id="p" xlink:href="#h" gradientUnits="userSpaceOnUse" gradientTransform="matrix(.487 0 0 .487 .308 8.308)"/><linearGradient id="h"><stop offset="0" stop-color="#505050"/><stop offset="1" stop-color="#8e8e8e"/></linearGradient><radialGradient cx="4.993" cy="43.5" r="2.5" fx="4.993" fy="43.5" id="l" xlink:href="#i" gradientUnits="userSpaceOnUse" gradientTransform="matrix(2.004 0 0 1.4 27.988 -17.4)"/><linearGradient id="i"><stop offset="0" stop-color="#181818"/><stop offset="1" stop-color="#181818" stop-opacity="0"/></linearGradient><radialGradient cx="4.993" cy="43.5" r="2.5" fx="4.993" fy="43.5" id="m" xlink:href="#j" gradientUnits="userSpaceOnUse" gradientTransform="matrix(2.004 0 0 1.4 -20.012 -104.4)"/><linearGradient id="j"><stop offset="0" stop-color="#181818"/><stop offset="1" stop-color="#181818" stop-opacity="0"/></linearGradient><linearGradient x1="25.058" y1="47.028" x2="25.058" y2="39.999" id="n" xlink:href="#k" gradientUnits="userSpaceOnUse"/><linearGradient id="k"><stop offset="0" stop-color="#181818" stop-opacity="0"/><stop offset=".5" stop-color="#181818"/><stop offset="1" stop-color="#181818" stop-opacity="0"/></linearGradient></defs><g transform="translate(0 -8)"><g transform="matrix(.579 0 0 .428 -1.895 10.861)" opacity=".4"><rect width="5" height="7" x="38" y="40" fill="url(#l)"/><rect width="5" height="7" x="-10" y="-47" transform="scale(-1)" fill="url(#m)"/><rect width="28" height="7" x="10" y="40" fill="url(#n)"/></g><rect width="19" height="19" rx="1" ry="1" x="2.5" y="10.5" color="#000" fill="url(#o)" stroke="url(#p)" stroke-linecap="round" stroke-linejoin="round" overflow="visible" enable-background="accumulate"/><rect width="17" height="17" x="3.501" y="11.499" opacity=".5" stroke="url(#q)" stroke-linecap="round" stroke-linejoin="round" fill="none"/><path d="M12 21.665l3.138 3.168-3.138 3.168-3.138-3.168zm-3.862-3.899l3.138 3.168-3.138 3.168-3.138-3.168zm7.724.133l3.138 3.101-3.138 3.101-3.138-3.101zm-3.862-3.899l3.138 3.101-3.138 3.101-3.138-3.101z" opacity=".4" color="#000" fill="#fff" overflow="visible" enable-background="accumulate"/><path d="M12.001 20.663l3.138 3.168-3.138 3.168-3.138-3.168zm-3.862-3.899l3.138 3.168-3.138 3.168-3.138-3.168zm7.724.133l3.138 3.101-3.138 3.101-3.138-3.101zm-3.862-3.899l3.138 3.101-3.138 3.101-3.138-3.101z" color="#000" fill="url(#r)" overflow="visible" enable-background="accumulate"/><path d="M12.044 13.629l2.501 2.49-2.501 2.49-2.501-2.49z" opacity=".1" color="#000" stroke="url(#s)" overflow="visible" enable-background="accumulate" fill="none"/><path d="M8.186 17.442l2.501 2.553-2.501 2.553-2.501-2.553z" opacity=".1" color="#000" stroke="url(#t)" overflow="visible" enable-background="accumulate" fill="none"/><path d="M12 21.295l2.588 2.574-2.588 2.574-2.588-2.574z" opacity=".1" color="#000" stroke="url(#u)" overflow="visible" enable-background="accumulate" fill="none"/><path d="M15.879 17.442l2.61 2.574-2.61 2.574-2.61-2.574z" opacity=".1" color="#000" stroke="url(#v)" overflow="visible" enable-background="accumulate" fill="none"/></g></svg>