<svg xmlns="http://www.w3.org/2000/svg" xmlns:xlink="http://www.w3.org/1999/xlink" version="1" width="24" height="24"><defs><linearGradient id="a"><stop offset="0" stop-opacity="0"/><stop offset=".5"/><stop offset="1" stop-opacity="0"/></linearGradient><linearGradient x1="302.857" y1="366.648" x2="302.857" y2="609.505" id="p" xlink:href="#a" gradientUnits="userSpaceOnUse" gradientTransform="matrix(.035 0 0 .008 -.725 18.981)"/><radialGradient cx="605.714" cy="486.648" r="117.143" fx="605.714" fy="486.648" id="q" xlink:href="#b" gradientUnits="userSpaceOnUse" gradientTransform="matrix(-.012 0 0 .008 10.761 18.981)"/><linearGradient id="b"><stop offset="0"/><stop offset="1" stop-opacity="0"/></linearGradient><radialGradient cx="605.714" cy="486.648" r="117.143" fx="605.714" fy="486.648" id="r" xlink:href="#b" gradientUnits="userSpaceOnUse" gradientTransform="matrix(.012 0 0 .008 13.239 18.981)"/><linearGradient id="c"><stop offset="0" stop-color="#aaa"/><stop offset="1" stop-color="#c8c8c8"/></linearGradient><linearGradient x1="-51.786" y1="50.786" x2="-51.786" y2="2.906" id="t" xlink:href="#c" gradientUnits="userSpaceOnUse" gradientTransform="matrix(.392 0 0 .447 29.199 -1.239)"/><linearGradient id="d"><stop offset="0" stop-color="#f4f4f4"/><stop offset="1" stop-color="#dbdbdb"/></linearGradient><linearGradient x1="25.132" y1=".985" x2="25.132" y2="47.013" id="s" xlink:href="#d" gradientUnits="userSpaceOnUse" gradientTransform="matrix(.486 0 0 .478 .343 -.706)"/><radialGradient cx="102" cy="112.305" r="139.559" id="e" gradientUnits="userSpaceOnUse"><stop offset="0" stop-color="#b7b8b9"/><stop offset=".189" stop-color="#ececec"/><stop offset=".257" stop-color="#fafafa" stop-opacity="0"/><stop offset=".301" stop-color="#fff" stop-opacity="0"/><stop offset=".531" stop-color="#fafafa" stop-opacity="0"/><stop offset=".845" stop-color="#ebecec" stop-opacity="0"/><stop offset="1" stop-color="#e1e2e3" stop-opacity="0"/></radialGradient><radialGradient cx="102" cy="112.305" r="139.559" id="u" xlink:href="#e" gradientUnits="userSpaceOnUse" gradientTransform="matrix(.17 0 0 -.191 1.106 23.717)"/><linearGradient id="f"><stop offset="0" stop-color="#fff"/><stop offset="1" stop-color="#fff" stop-opacity="0"/></linearGradient><linearGradient x1="24" y1="2" x2="24" y2="46.017" id="v" xlink:href="#f" gradientUnits="userSpaceOnUse" gradientTransform="matrix(.455 0 0 .465 1.091 .337)"/><linearGradient x1="14.997" y1="11.188" x2="32.511" y2="34.307" id="g" gradientUnits="userSpaceOnUse"><stop offset="0" stop-color="#ebebeb"/><stop offset=".5" stop-color="#fff"/><stop offset="1" stop-color="#ebebeb"/></linearGradient><linearGradient x1="14.997" y1="11.188" x2="32.511" y2="34.307" id="w" xlink:href="#g" gradientUnits="userSpaceOnUse" gradientTransform="matrix(.347 0 0 .347 3.678 3.995)"/><linearGradient x1="12.274" y1="32.416" x2="35.391" y2="14.203" id="h" gradientUnits="userSpaceOnUse"><stop offset="0" stop-color="#fbfbfb"/><stop offset=".5" stop-color="#b6b6b6"/><stop offset="1" stop-color="#e4e4e4"/></linearGradient><linearGradient x1="12.274" y1="32.416" x2="35.391" y2="14.203" id="x" xlink:href="#h" gradientUnits="userSpaceOnUse" gradientTransform="matrix(.371 0 0 .371 3.086 3.42)"/><linearGradient id="i"><stop offset="0" stop-color="#fff"/><stop offset="1" stop-color="#fff" stop-opacity="0"/></linearGradient><linearGradient x1="28.703" y1="31.495" x2="17.743" y2="18.367" id="y" xlink:href="#i" gradientUnits="userSpaceOnUse"/><linearGradient id="j"><stop offset="0" stop-color="#fefefe"/><stop offset="1" stop-color="#cbcbcb"/></linearGradient><linearGradient x1="32.892" y1="8.059" x2="36.358" y2="5.457" id="z" xlink:href="#j" gradientUnits="userSpaceOnUse" gradientTransform="matrix(.478 0 0 .552 .372 -.076)"/><linearGradient x1="20.58" y1="10.775" x2="24.274" y2="9.862" id="A" xlink:href="#k" gradientUnits="userSpaceOnUse" spreadMethod="reflect"/><linearGradient id="k"><stop offset="0" stop-color="#e6cde2"/><stop offset="1" stop-color="#e6cde2" stop-opacity="0"/></linearGradient><linearGradient x1="17.495" y1="11.2" x2="21.047" y2="9.796" id="B" xlink:href="#l" gradientUnits="userSpaceOnUse" spreadMethod="reflect"/><linearGradient id="l"><stop offset="0" stop-color="#c1cbe4"/><stop offset="1" stop-color="#c1cbe4" stop-opacity="0"/></linearGradient><linearGradient x1="14.085" y1="13.046" x2="16.994" y2="10.732" id="C" xlink:href="#m" gradientUnits="userSpaceOnUse" spreadMethod="reflect"/><linearGradient id="m"><stop offset="0" stop-color="#c4ebdd"/><stop offset="1" stop-color="#c4ebdd" stop-opacity="0"/></linearGradient><linearGradient x1="12.372" y1="16.188" x2="14.609" y2="13.462" id="D" xlink:href="#n" gradientUnits="userSpaceOnUse" spreadMethod="reflect"/><linearGradient id="n"><stop offset="0" stop-color="#ebeec7"/><stop offset="1" stop-color="#ebeec7" stop-opacity="0"/></linearGradient><linearGradient id="o"><stop offset="0" stop-color="#fcd9cd"/><stop offset="1" stop-color="#fcd9cd" stop-opacity="0"/></linearGradient><linearGradient x1="20.58" y1="10.775" x2="24.274" y2="9.862" id="F" xlink:href="#k" gradientUnits="userSpaceOnUse" spreadMethod="reflect"/><linearGradient x1="17.495" y1="11.2" x2="21.047" y2="9.796" id="G" xlink:href="#l" gradientUnits="userSpaceOnUse" spreadMethod="reflect"/><linearGradient x1="14.085" y1="13.046" x2="16.994" y2="10.732" id="H" xlink:href="#m" gradientUnits="userSpaceOnUse" spreadMethod="reflect"/><linearGradient x1="12.372" y1="16.188" x2="14.609" y2="13.462" id="I" xlink:href="#n" gradientUnits="userSpaceOnUse" spreadMethod="reflect"/><linearGradient x1="10.609" y1="17.886" x2="9.73" y2="20.613" id="J" xlink:href="#o" gradientUnits="userSpaceOnUse" spreadMethod="reflect"/><linearGradient x1="10.609" y1="17.886" x2="9.73" y2="20.613" id="E" xlink:href="#o" gradientUnits="userSpaceOnUse" spreadMethod="reflect"/></defs><g><rect width="17" height="2" x="3.5" y="22" opacity=".15" fill="url(#p)" overflow="visible"/><path d="M3.5 22v2c-.62.004-1.5-.448-1.5-1s.692-1 1.5-1z" opacity=".15" fill="url(#q)" overflow="visible"/><path d="M20.5 22v2c.62.004 1.5-.448 1.5-1s-.692-1-1.5-1z" opacity=".15" fill="url(#r)" overflow="visible"/><path d="M3.5.5h11.5c.683.237 4.541 3.128 5.5 5v17h-17v-22z" fill="url(#s)" stroke="url(#t)" stroke-linejoin="round"/><path d="M4.17 22c-.094 0-.17-.086-.17-.191v-20.598c0-.105.076-.191.17-.191 3.521.053 7.424-.079 10.941.013l4.839 4.327.05 16.448c0 .105-.076.191-.17.191h-15.66z" fill="url(#u)"/><path d="M19.5 5.677v15.823h-15v-20h10.394" opacity=".6" stroke="url(#v)" fill="none"/><path d="M11.997 5.936c-3.363 0-6.067 2.704-6.067 6.067s2.704 6.067 6.067 6.067 6.067-2.704 6.067-6.067-2.704-6.067-6.067-6.067zm0 7.522c-.797 0-1.456-.659-1.456-1.456 0-.797.659-1.456 1.456-1.456.797 0 1.456.659 1.456 1.456 0 .797-.659 1.456-1.456 1.456z" fill="url(#w)"/><path d="M12 5.5c-3.603 0-6.5 2.897-6.5 6.5s2.897 6.5 6.5 6.5 6.5-2.897 6.5-6.5-2.897-6.5-6.5-6.5zm0 8.06c-.854 0-1.56-.706-1.56-1.56 0-.854.706-1.56 1.56-1.56.854 0 1.56.706 1.56 1.56 0 .854-.706 1.56-1.56 1.56z" fill="url(#x)" stroke="#808080"/><path d="M12 8c-2.234 0-4 1.818-4 4 0 2.234 1.818 4 4 4 2.234 0 4-1.818 4-4 0-2.234-1.818-4-4-4zm0 6.182c-1.195 0-2.182-.987-2.182-2.182 0-1.195.987-2.182 2.182-2.182 1.195 0 2.182.987 2.182 2.182 0 1.195-.987 2.182-2.182 2.182z" opacity=".511" fill="#eeeeec"/><path d="M30.406 24.931a6.099 6.099 0 1 1-12.198 0 6.099 6.099 0 1 1 12.198 0z" transform="matrix(.41 0 0 .41 2.036 1.78)" opacity=".672" stroke="url(#y)" stroke-width="2.44" overflow="visible" fill="none"/><path d="M14.075 1c1.156.329.339 4.614.339 4.614s4.515-.428 5.608 1.195c1.489 2.212-.068-.635-.173-.822-.756-1.34-3.866-4.547-5.045-4.941-.088-.029-.284-.046-.728-.046z" opacity=".2" fill-rule="evenodd"/><path d="M14 1c1.526 0 1 4 1 4s4.992-.453 4.992 2c0-.598.056-1.478-.064-1.656-.839-1.243-3.744-3.862-4.798-4.298-.086-.036-.686-.046-1.13-.046z" fill="url(#z)" fill-rule="evenodd"/><g><path d="M9.744 6.448l1.383 3.222c.325-.129.679-.198 1.053-.189l.029.001.109-3.486c-.911-.045-1.724.153-2.573.452z" fill="url(#A)"/><path d="M8.421 7.174l2.147 2.807c.283-.201.609-.35.973-.427l.028-.006-.753-3.418c-.895.168-1.648.557-2.396 1.044z" fill="url(#B)"/><path d="M7.222 8.296l2.854 2.146c.22-.265.495-.491.826-.657l.026-.013-1.657-3.095c-.819.387-1.456.96-2.049 1.618z" fill="url(#C)"/><path d="M6.411 9.624c2.222.673 2.432 2.109 3.958.526l-2.45-2.608c-.688.579-1.111 1.298-1.508 2.082z" fill="url(#D)"/><path d="M6.882 8.76c-.366.525-.591 1.091-.782 1.693l3.512.892c.067-.229.16-.454.3-.665l.019-.028-3.05-1.892z" fill="url(#E)"/></g><g><path d="M14.256 17.552l-1.383-3.222c-.325.129-.679.198-1.053.189l-.029-.001-.109 3.486c.911.045 1.724-.153 2.573-.452z" fill="url(#F)"/><path d="M15.579 16.826l-2.147-2.807c-.283.201-.609.35-.973.427l-.028.006.753 3.418c.895-.168 1.648-.557 2.396-1.044z" fill="url(#G)"/><path d="M16.778 15.704l-2.854-2.146c-.22.265-.495.491-.826.657l-.026.013 1.657 3.095c.819-.387 1.456-.96 2.049-1.618z" fill="url(#H)"/><path d="M17.589 14.376c-2.222-.673-2.432-2.109-3.958-.526l2.45 2.608c.688-.579 1.111-1.298 1.508-2.082z" fill="url(#I)"/><path d="M17.118 15.24c.366-.525.591-1.091.782-1.693l-3.512-.892c-.067.229-.16.454-.3.665l-.019.028 3.05 1.892z" fill="url(#J)"/></g></g></svg>