<svg xmlns="http://www.w3.org/2000/svg" xmlns:xlink="http://www.w3.org/1999/xlink" version="1" width="24" height="24"><defs><linearGradient id="a"><stop offset="0" stop-opacity="0"/><stop offset=".5"/><stop offset="1" stop-opacity="0"/></linearGradient><linearGradient x1="302.857" y1="366.648" x2="302.857" y2="609.505" id="j" xlink:href="#a" gradientUnits="userSpaceOnUse" gradientTransform="matrix(.035 0 0 .008 -.725 18.981)"/><radialGradient cx="605.714" cy="486.648" r="117.143" fx="605.714" fy="486.648" id="k" xlink:href="#b" gradientUnits="userSpaceOnUse" gradientTransform="matrix(-.012 0 0 .008 10.761 18.981)"/><linearGradient id="b"><stop offset="0"/><stop offset="1" stop-opacity="0"/></linearGradient><radialGradient cx="605.714" cy="486.648" r="117.143" fx="605.714" fy="486.648" id="l" xlink:href="#b" gradientUnits="userSpaceOnUse" gradientTransform="matrix(.012 0 0 .008 13.239 18.981)"/><linearGradient id="c"><stop offset="0" stop-color="#aaa"/><stop offset="1" stop-color="#c8c8c8"/></linearGradient><linearGradient x1="-51.786" y1="50.786" x2="-51.786" y2="2.906" id="n" xlink:href="#c" gradientUnits="userSpaceOnUse" gradientTransform="matrix(.392 0 0 .447 29.199 -1.239)"/><linearGradient id="d"><stop offset="0" stop-color="#f4f4f4"/><stop offset="1" stop-color="#dbdbdb"/></linearGradient><linearGradient x1="25.132" y1=".985" x2="25.132" y2="47.013" id="m" xlink:href="#d" gradientUnits="userSpaceOnUse" gradientTransform="matrix(.486 0 0 .478 .343 -.706)"/><radialGradient cx="102" cy="112.305" r="139.559" id="e" gradientUnits="userSpaceOnUse"><stop offset="0" stop-color="#b7b8b9"/><stop offset=".189" stop-color="#ececec"/><stop offset=".257" stop-color="#fafafa" stop-opacity="0"/><stop offset=".301" stop-color="#fff" stop-opacity="0"/><stop offset=".531" stop-color="#fafafa" stop-opacity="0"/><stop offset=".845" stop-color="#ebecec" stop-opacity="0"/><stop offset="1" stop-color="#e1e2e3" stop-opacity="0"/></radialGradient><radialGradient cx="102" cy="112.305" r="139.559" id="o" xlink:href="#e" gradientUnits="userSpaceOnUse" gradientTransform="matrix(.17 0 0 -.191 1.106 23.717)"/><linearGradient id="f"><stop offset="0" stop-color="#fff"/><stop offset="1" stop-color="#fff" stop-opacity="0"/></linearGradient><linearGradient x1="24" y1="2" x2="24" y2="46.017" id="p" xlink:href="#f" gradientUnits="userSpaceOnUse" gradientTransform="matrix(.455 0 0 .465 1.091 .337)"/><linearGradient x1="28.739" y1="144.117" x2="26.257" y2="125.391" id="t" xlink:href="#g" gradientUnits="userSpaceOnUse" gradientTransform="matrix(.255 0 0 .129 6.085 -15.174)"/><linearGradient id="g"><stop offset="0" stop-color="#fff"/><stop offset="1" stop-color="#fff" stop-opacity=".379"/></linearGradient><linearGradient x1="28.739" y1="144.117" x2="25.4" y2="119.865" id="s" xlink:href="#g" gradientUnits="userSpaceOnUse" gradientTransform="matrix(.126 0 0 .129 2.114 -14.057)"/><radialGradient cx="17.059" cy="41.059" r="5.738" fx="15.97" fy="39.106" id="r" xlink:href="#h" gradientUnits="userSpaceOnUse" gradientTransform="matrix(.37 -.062 0 .359 4.671 -1.515)"/><linearGradient id="h"><stop offset="0" stop-color="#aaa"/><stop offset="1" stop-color="#4d4d4d"/></linearGradient><radialGradient cx="17.059" cy="41.059" r="5.738" fx="15.544" fy="39.027" id="q" xlink:href="#h" gradientUnits="userSpaceOnUse" gradientTransform="matrix(.377 -.063 0 .365 -2.446 -.691)"/><linearGradient id="i"><stop offset="0" stop-color="#fefefe"/><stop offset="1" stop-color="#cbcbcb"/></linearGradient><linearGradient x1="32.892" y1="8.059" x2="36.358" y2="5.457" id="u" xlink:href="#i" gradientUnits="userSpaceOnUse" gradientTransform="matrix(.478 0 0 .552 .372 -.076)"/></defs><g><rect width="17" height="2" x="3.5" y="22" opacity=".15" fill="url(#j)" overflow="visible"/><path d="M3.5 22v2c-.62.004-1.5-.448-1.5-1s.692-1 1.5-1z" opacity=".15" fill="url(#k)" overflow="visible"/><path d="M20.5 22v2c.62.004 1.5-.448 1.5-1s-.692-1-1.5-1z" opacity=".15" fill="url(#l)" overflow="visible"/><path d="M3.5.5h11.5c.683.237 4.541 3.128 5.5 5v17h-17v-22z" fill="url(#m)" stroke="url(#n)" stroke-linejoin="round"/><path d="M4.17 22c-.094 0-.17-.086-.17-.191v-20.598c0-.105.076-.191.17-.191 3.521.053 7.424-.079 10.941.013l4.839 4.327.05 16.448c0 .105-.076.191-.17.191h-15.66z" fill="url(#o)"/><path d="M19.5 5.677v15.823h-15v-20h10.394" opacity=".6" stroke="url(#p)" fill="none"/><g><path d="M16.887 15.243l-.367-2.955" fill="none"/><path d="M16.862 4.501c-2.357.38-5.512.771-7.862 1.172-.622.304-.483 1.086-.51 1.653v7.596c-1.312-.247-2.911.837-2.981 2.553-.113 1.068.834 1.998 1.864 2.023 1.845.045 3.106-1.179 3.126-2.727-.02-2.599.006-5.2 0-7.8.286-.021 4.611-.847 5-.901v5.841c-1.146-.275-2.612.479-2.975 2.017-.153.862.136 1.945 1.012 2.31 1.708.785 4.053-.805 3.958-2.671-.026-3.466.022-6.934 0-10.4-.045-.326-.266-.691-.632-.667z" fill="#4d4d4d" stroke="#333" stroke-linecap="round" stroke-linejoin="round"/><path d="M9.974 16.865c0 .998-.893 1.957-1.994 2.141-1.101.185-1.994-.475-1.994-1.473 0-.998.893-1.957 1.994-2.141 1.101-.185 1.994.475 1.994 1.473z" fill="url(#q)"/><path d="M16.938 15.828c0 .982-.877 1.926-1.958 2.108-1.081.182-1.958-.468-1.958-1.45 0-.983.877-1.926 1.958-2.108 1.081-.182 1.958.468 1.958 1.45z" fill="url(#r)"/><path d="M9.054 15.476l-.054-8.682s.059-.664.495-.666c.155-.027 6.932-1.157 6.932-1.157s.133.709-6.069 1.63c-.517.077-.765.068-.763.558.007 1.322-.03 3.796-.03 8.608 0 .034-.325-.244-.51-.292z" opacity=".4" fill="url(#s)" fill-rule="evenodd"/><path d="M16 14.271l.034-6.559.537-.054c.007 1.225 0 2.242 0 6.869 0 .034-.199-.209-.571-.257z" opacity=".4" fill="url(#t)" fill-rule="evenodd"/></g><path d="M14.075 1c1.156.329.339 4.614.339 4.614s4.515-.428 5.608 1.195c1.489 2.212-.068-.635-.173-.822-.756-1.34-3.866-4.547-5.045-4.941-.088-.029-.284-.046-.728-.046z" opacity=".2" fill-rule="evenodd"/><path d="M14 1c1.526 0 1 4 1 4s4.992-.453 4.992 2c0-.598.056-1.478-.064-1.656-.839-1.243-3.744-3.862-4.798-4.298-.086-.036-.686-.046-1.13-.046z" fill="url(#u)" fill-rule="evenodd"/></g></svg>