<svg xmlns="http://www.w3.org/2000/svg" xmlns:xlink="http://www.w3.org/1999/xlink" width="24" height="24"><defs><linearGradient x1="27.557" y1="7.163" x2="27.557" y2="21.387" id="q" xlink:href="#a" gradientUnits="userSpaceOnUse" gradientTransform="matrix(.628 0 0 .725 2.973 -4.373)"/><linearGradient id="a"><stop offset="0" stop-color="#fff"/><stop offset=".01" stop-color="#fff" stop-opacity=".235"/><stop offset=".99" stop-color="#fff" stop-opacity=".157"/><stop offset="1" stop-color="#fff" stop-opacity=".392"/></linearGradient><linearGradient x1="22.935" y1="49.629" x2="22.809" y2="36.658" id="p" xlink:href="#b" gradientUnits="userSpaceOnUse" gradientTransform="matrix(.548 0 0 .483 -1.107 -8.245)"/><linearGradient id="b"><stop offset="0" stop-color="#0a0a0a" stop-opacity=".498"/><stop offset="1" stop-color="#0a0a0a" stop-opacity="0"/></linearGradient><linearGradient x1="35.793" y1="17.118" x2="35.793" y2="43.761" id="o" xlink:href="#c" gradientUnits="userSpaceOnUse" gradientTransform="matrix(.467 0 0 .464 .836 -8.161)"/><linearGradient id="c"><stop offset="0" stop-color="#b4cee1"/><stop offset="1" stop-color="#5d9fcd"/></linearGradient><linearGradient x1="21.37" y1="4.732" x2="21.37" y2="34.143" id="n" xlink:href="#d" gradientUnits="userSpaceOnUse" gradientTransform="matrix(.431 0 0 .486 1.99 -5.815)"/><linearGradient id="d"><stop offset="0" stop-color="#fff"/><stop offset=".111" stop-color="#fff" stop-opacity=".235"/><stop offset=".99" stop-color="#fff" stop-opacity=".157"/><stop offset="1" stop-color="#fff" stop-opacity=".392"/></linearGradient><linearGradient x1="62.989" y1="13" x2="62.989" y2="16" id="m" xlink:href="#e" gradientUnits="userSpaceOnUse" gradientTransform="matrix(.491 0 0 .49 -24.706 -8.713)"/><linearGradient id="e"><stop offset="0" stop-color="#f9f9f9"/><stop offset="1" stop-color="#d8d8d8"/></linearGradient><linearGradient x1="302.857" y1="366.648" x2="302.857" y2="609.505" id="j" xlink:href="#f" gradientUnits="userSpaceOnUse" gradientTransform="matrix(2.774 0 0 1.97 -1892.179 -872.885)"/><linearGradient id="f"><stop offset="0" stop-opacity="0"/><stop offset=".5"/><stop offset="1" stop-opacity="0"/></linearGradient><radialGradient cx="605.714" cy="486.648" r="117.143" fx="605.714" fy="486.648" id="k" xlink:href="#g" gradientUnits="userSpaceOnUse" gradientTransform="matrix(2.774 0 0 1.97 -1891.633 -872.885)"/><linearGradient id="g"><stop offset="0"/><stop offset="1" stop-opacity="0"/></linearGradient><radialGradient cx="605.714" cy="486.648" r="117.143" fx="605.714" fy="486.648" id="l" xlink:href="#g" gradientUnits="userSpaceOnUse" gradientTransform="matrix(-2.774 0 0 1.97 112.762 -872.885)"/><linearGradient id="h"><stop offset="0" stop-opacity=".322"/><stop offset="1" stop-opacity=".278"/></linearGradient><linearGradient x1="-51.786" y1="53.514" x2="-51.786" y2="3.634" id="i" xlink:href="#h" gradientUnits="userSpaceOnUse" gradientTransform="matrix(.402 0 0 .398 53.351 -8.791)"/></defs><g><path d="M3.036 3.437c-.277 0-.5.223-.5.5v1.563h-.5c-.277 0-.5.223-.5.5v1.765h21v-1.765c0-.277-.223-.5-.5-.5h-11.5v-1.563c0-.277-.223-.5-.5-.5z" opacity=".8" color="#000" stroke="url(#i)" overflow="visible" enable-background="accumulate" fill="none"/><g transform="matrix(.012 0 0 .008 22.516 19.49)"><rect width="1339.633" height="478.357" x="-1559.252" y="-150.697" opacity=".402" fill="url(#j)" overflow="visible"/><path d="M-219.619-150.68v478.331c142.874.9 345.4-107.17 345.4-239.196 0-132.027-159.437-239.135-345.4-239.135z" opacity=".402" fill="url(#k)" overflow="visible"/><path d="M-1559.252-150.68v478.331c-142.874.9-345.4-107.17-345.4-239.196 0-132.027 159.437-239.135 345.4-239.135z" opacity=".402" fill="url(#l)" overflow="visible"/></g><path d="M3.036 4v2h-1v3h20v-3h-12v-2z" color="#000" fill="url(#m)" overflow="visible" enable-background="accumulate"/><path d="M3.536 4.5v2h-1v2.339h19v-2.339h-12v-2z" color="#000" stroke="url(#n)" stroke-linecap="round" overflow="visible" enable-background="accumulate" fill="none"/><path d="M1.846 7.5c-.5.058-.233.652-.273.986.058.216.433 11.352.433 11.734 0 .332.164.276.58.276h19.115c.448.01.353.005.353-.281.033-.146.463-12.262.48-12.454 0-.202.042-.262-.221-.262h-20.467z" color="#000" fill="url(#o)" overflow="visible" enable-background="accumulate"/><path d="M1.536 7h21c.303 0 .5.215.5.483l-.494 13.051c.007.339-.1.473-.453.466l-19.988-.008c-.303 0-.609-.2-.609-.467l-.456-13.041c0-.268.197-.483.5-.483z" opacity=".4" fill="url(#p)"/><path d="M2.536 8.5l.44 11h18.12l.44-11z" opacity=".5" color="#000" stroke="url(#q)" stroke-linecap="round" overflow="visible" enable-background="accumulate" fill="none"/><path d="M1.846 7.5c-.5.058-.233.652-.273.986.058.216.433 11.352.433 11.734 0 .332.164.276.58.276h19.115c.448.01.353.005.353-.281.033-.146.463-12.262.48-12.454 0-.202.042-.262-.221-.262h-20.467z" opacity=".3" color="#000" stroke="#000" stroke-linecap="round" stroke-linejoin="round" overflow="visible" enable-background="accumulate" fill="none"/></g></svg>