<svg xmlns="http://www.w3.org/2000/svg" xmlns:xlink="http://www.w3.org/1999/xlink" version="1" width="24" height="24"><defs><radialGradient cx="605.714" cy="486.648" r="117.143" fx="605.714" fy="486.648" id="h" xlink:href="#a" gradientUnits="userSpaceOnUse" gradientTransform="matrix(-.031 0 0 .015 -2.813 20.025)"/><linearGradient id="a"><stop offset="0"/><stop offset="1" stop-opacity="0"/></linearGradient><radialGradient cx="605.714" cy="486.648" r="117.143" fx="605.714" fy="486.648" id="g" xlink:href="#a" gradientUnits="userSpaceOnUse" gradientTransform="matrix(.031 0 0 .015 -24.518 20.025)"/><linearGradient id="b"><stop offset="0" stop-opacity="0"/><stop offset=".5"/><stop offset="1" stop-opacity="0"/></linearGradient><linearGradient x1="302.857" y1="366.648" x2="302.857" y2="609.505" id="f" xlink:href="#b" gradientUnits="userSpaceOnUse" gradientTransform="matrix(.033 0 0 .015 -25.772 20.025)"/><linearGradient id="c"><stop offset="0" stop-color="#fff"/><stop offset="1" stop-color="#e0e0e0"/></linearGradient><linearGradient x1="108.265" y1="110.281" x2="25.818" y2="14.029" id="i" xlink:href="#c" gradientUnits="userSpaceOnUse" gradientTransform="matrix(.259 0 0 .185 -29.552 -23.92)"/><linearGradient id="d"><stop offset="0" stop-color="#333"/><stop offset="1" stop-color="#292929"/></linearGradient><linearGradient x1="-24.032" y1="-13.091" x2="-24.098" y2="-40.164" id="k" xlink:href="#d" gradientUnits="userSpaceOnUse" gradientTransform="matrix(.543 0 0 .556 1.036 3.004)"/><linearGradient id="e"><stop offset="0" stop-color="#262626"/><stop offset="1" stop-color="#828282"/></linearGradient><linearGradient x1="28.938" y1="17.333" x2="105.365" y2="92.824" id="j" xlink:href="#e" gradientUnits="userSpaceOnUse" gradientTransform="matrix(.239 0 0 .19 -28.248 -22.92)"/></defs><g><g transform="translate(25.665 -6.217)"><rect width="16.153" height="3.662" x="-21.758" y="25.554" opacity=".402" fill="url(#f)" overflow="visible"/><path d="M-5.578 25.554v3.662c1.618.007 3.913-.821 3.913-1.831 0-1.011-1.806-1.831-3.913-1.831z" opacity=".402" fill="url(#g)" overflow="visible"/><path d="M-21.753 25.554v3.662c-1.618.007-3.913-.821-3.913-1.831 0-1.011 1.806-1.831 3.913-1.831z" opacity=".402" fill="url(#h)" overflow="visible"/></g><rect width="22.982" height="18.959" x="-23.48" y="-21.501" transform="matrix(-1 .002 -.001 -1 0 0)" fill="url(#i)" stroke="#b3b3b3" stroke-linecap="round" stroke-opacity=".969"/><rect width="18.965" height="14.927" rx="0" ry="0" x="-21.511" y="-19.51" transform="matrix(-1 .004 .002 -1 0 0)" fill="url(#j)" stroke="url(#k)" stroke-linecap="round"/></g></svg>