<svg xmlns="http://www.w3.org/2000/svg" xmlns:xlink="http://www.w3.org/1999/xlink" version="1" width="24" height="24"><defs><linearGradient id="a"><stop offset="0" stop-opacity="0"/><stop offset=".5"/><stop offset="1" stop-opacity="0"/></linearGradient><linearGradient x1="302.857" y1="366.648" x2="302.857" y2="609.505" id="i" xlink:href="#a" gradientUnits="userSpaceOnUse" gradientTransform="matrix(.035 0 0 .008 -.725 18.981)"/><radialGradient cx="605.714" cy="486.648" r="117.143" fx="605.714" fy="486.648" id="j" xlink:href="#b" gradientUnits="userSpaceOnUse" gradientTransform="matrix(-.012 0 0 .008 10.761 18.981)"/><linearGradient id="b"><stop offset="0"/><stop offset="1" stop-opacity="0"/></linearGradient><radialGradient cx="605.714" cy="486.648" r="117.143" fx="605.714" fy="486.648" id="k" xlink:href="#b" gradientUnits="userSpaceOnUse" gradientTransform="matrix(.012 0 0 .008 13.239 18.981)"/><linearGradient x1="-51.786" y1="50.786" x2="-51.786" y2="2.906" id="m" xlink:href="#c" gradientUnits="userSpaceOnUse" gradientTransform="matrix(.392 0 0 .447 29.199 -1.239)"/><linearGradient id="d"><stop offset="0" stop-color="#f4f4f4"/><stop offset="1" stop-color="#dbdbdb"/></linearGradient><linearGradient x1="25.132" y1=".985" x2="25.132" y2="47.013" id="l" xlink:href="#d" gradientUnits="userSpaceOnUse" gradientTransform="matrix(.486 0 0 .478 .343 -.706)"/><linearGradient x1="9.492" y1="46.314" x2="9.492" y2="1.716" id="o" xlink:href="#e" gradientUnits="userSpaceOnUse" gradientTransform="matrix(.579 0 0 .488 -.247 -.221)"/><linearGradient x1="-22.54" y1="11.109" x2="-22.54" y2="46.264" id="n" xlink:href="#f" gradientUnits="userSpaceOnUse" gradientTransform="matrix(.508 0 0 .502 25.342 -.528)"/><linearGradient id="g"><stop offset="0" stop-color="#fff"/><stop offset="1" stop-color="#fff" stop-opacity="0"/></linearGradient><linearGradient x1="24" y1="1.425" x2="24" y2="46.017" id="p" xlink:href="#g" gradientUnits="userSpaceOnUse" gradientTransform="matrix(.455 0 0 .465 1.091 .337)"/><linearGradient id="c"><stop offset="0" stop-color="#aaa"/><stop offset="1" stop-color="#c8c8c8"/></linearGradient><linearGradient id="h"><stop offset="0" stop-color="#fefefe"/><stop offset="1" stop-color="#cbcbcb"/></linearGradient><linearGradient x1="32.892" y1="8.059" x2="36.358" y2="5.457" id="q" xlink:href="#h" gradientUnits="userSpaceOnUse" gradientTransform="matrix(.478 0 0 .552 .372 -.076)"/><linearGradient id="f"><stop offset="0" stop-color="#a3c0d0"/><stop offset="1" stop-color="#5a8caa"/></linearGradient><linearGradient id="e"><stop offset="0" stop-color="#517492"/><stop offset="1" stop-color="#85a2bb"/></linearGradient></defs><g><rect width="17" height="2" x="3.5" y="22" opacity=".15" fill="url(#i)" overflow="visible"/><path d="M3.5 22v2c-.62.004-1.5-.448-1.5-1s.692-1 1.5-1z" opacity=".15" fill="url(#j)" overflow="visible"/><path d="M20.5 22v2c.62.004 1.5-.448 1.5-1s-.692-1-1.5-1z" opacity=".15" fill="url(#k)" overflow="visible"/><path d="M3.5.5h11.5c.683.237 4.541 3.128 5.5 5v17h-17v-22z" fill="url(#l)" stroke="url(#m)" stroke-linejoin="round"/><path d="M6 22.495h-2.351c-.271-.26-.065-.777-.129-1.146v-20.718l.038-.089.092-.037h2.351" fill="url(#n)" stroke="url(#o)" stroke-width="1.01" stroke-linejoin="round" display="block" overflow="visible"/><path d="M19.5 5.677v15.823h-15v-20h10.394" opacity=".24" stroke="url(#p)" fill="none"/><path d="M8 4.505h2.344-2.344zm2.688 0h2.188-2.188zm2.531 0h1.938-1.938zm2.25 0h.844-.844zm1.188 0zm-8.656 2h3.656-3.656zm4.063 0h1.75-1.75zm2.063 0h.875-.875zm1.219 0h1.594-1.594zm1.938 0h.34-.34zm-9.281 2.03h1.594-1.594zm2.094 0h5.906-5.906zm-2.094 2.965h3.094-3.094zm3.406 0h5.063-5.063zm5.375 0h1.184-1.184zm-8.781 2h2.344-2.344zm2.688 0h2.156-2.156zm2.531 0h1.938-1.938zm2.25 0h.844-.844zm1.188 0h.59-.59zm-8.656 3h3.094-3.094zm3.406 0h5.063-5.063zm5.375 0h1.184-1.184zm-8.781 2h3.875-3.875zm4.219 0h1.75-1.75zm2.063 0h2.75-2.75z" stroke="#aaa" fill="none"/><path d="M14.075 1c1.156.329.339 4.614.339 4.614s4.515-.428 5.608 1.195c1.489 2.212-.068-.635-.173-.822-.756-1.34-3.866-4.547-5.045-4.941-.088-.029-.284-.046-.728-.046z" opacity=".2" fill-rule="evenodd"/><path d="M14 1c1.526 0 1 4 1 4s4.992-.453 4.992 2c0-.598.056-1.478-.064-1.656-.839-1.243-3.744-3.862-4.798-4.298-.086-.036-.686-.046-1.13-.046z" fill="url(#q)" fill-rule="evenodd"/></g></svg>