<svg xmlns="http://www.w3.org/2000/svg" xmlns:xlink="http://www.w3.org/1999/xlink" width="24" height="24"><defs><linearGradient xlink:href="#a" id="C" gradientUnits="userSpaceOnUse" gradientTransform="matrix(.391 0 0 .47 2.665 8.442)" x1="24" y1="14.916" x2="24" y2="32.596"/><linearGradient id="a"><stop offset="0" stop-color="#fff"/><stop offset=".123" stop-color="#fff" stop-opacity=".235"/><stop offset=".937" stop-color="#fff" stop-opacity=".157"/><stop offset="1" stop-color="#fff" stop-opacity=".392"/></linearGradient><radialGradient xlink:href="#b" id="A" gradientUnits="userSpaceOnUse" gradientTransform="matrix(0 .746 -.679 0 18.739 5.819)" cx="10.904" cy="8.45" fx="10.904" fy="8.45" r="20"/><linearGradient id="b"><stop offset="0" stop-color="#5f5f5f"/><stop offset=".262" stop-color="#4f4f4f"/><stop offset=".705" stop-color="#3b3b3b"/><stop offset="1" stop-color="#2b2b2b"/></linearGradient><linearGradient xlink:href="#c" id="B" gradientUnits="userSpaceOnUse" gradientTransform="matrix(.537 0 0 .53 .116 7.03)" x1="24" y1="44" x2="24" y2="3.899"/><linearGradient id="c"><stop offset="0" stop-color="#272727"/><stop offset="1" stop-color="#454545"/></linearGradient><linearGradient xlink:href="#d" id="z" gradientUnits="userSpaceOnUse" gradientTransform="matrix(.405 0 0 .459 2.27 8.973)" x1="24" y1="4.431" x2="24.107" y2="43.758"/><linearGradient id="d"><stop offset="0" stop-color="#fff"/><stop offset=".062" stop-color="#fff" stop-opacity=".235"/><stop offset=".933" stop-color="#fff" stop-opacity=".157"/><stop offset="1" stop-color="#fff" stop-opacity=".392"/></linearGradient><radialGradient xlink:href="#e" id="x" gradientUnits="userSpaceOnUse" gradientTransform="matrix(0 1.139 -.989 0 19.656 2.249)" cx="7.496" cy="8.45" fx="7.496" fy="8.45" r="20"/><linearGradient id="e"><stop offset="0" stop-color="#5f5f5f"/><stop offset=".262" stop-color="#4f4f4f"/><stop offset=".705" stop-color="#3b3b3b"/><stop offset="1" stop-color="#2b2b2b"/></linearGradient><linearGradient xlink:href="#f" id="y" gradientUnits="userSpaceOnUse" gradientTransform="matrix(.4 0 0 .487 1.7 8.307)" x1="24" y1="44" x2="24" y2="3.899"/><linearGradient id="f"><stop offset="0" stop-color="#272727"/><stop offset="1" stop-color="#454545"/></linearGradient><radialGradient xlink:href="#g" id="v" gradientUnits="userSpaceOnUse" gradientTransform="matrix(0 1.271 -1.497 0 22.453 -20.791)" cx="24.502" cy="6.648" fx="24.502" fy="6.648" r="17.498"/><linearGradient id="g"><stop offset="0" stop-color="#ddcfbd"/><stop offset="1" stop-color="#856f50"/></linearGradient><linearGradient xlink:href="#h" id="w" gradientUnits="userSpaceOnUse" gradientTransform="matrix(.33 0 0 .341 1.954 8.826)" x1="32.901" y1="4.648" x2="32.901" y2="61.482"/><linearGradient id="h"><stop offset="0" stop-color="#a79071"/><stop offset="1" stop-color="#6f5d45"/></linearGradient><linearGradient xlink:href="#i" id="t" gradientUnits="userSpaceOnUse" x1="10.654" y1="1" x2="10.654" y2="3" gradientTransform="matrix(.4 0 0 .5 .9 8.25)"/><linearGradient id="i"><stop offset="0" stop-color="#eee"/><stop offset="1" stop-color="#d9d9da"/></linearGradient><linearGradient xlink:href="#j" id="u" gradientUnits="userSpaceOnUse" gradientTransform="matrix(.4 0 0 .051 1.7 8.269)" x1="24" y1="44" x2="24" y2="3.899"/><linearGradient id="j"><stop offset="0" stop-color="#272727"/><stop offset="1" stop-color="#454545"/></linearGradient><linearGradient xlink:href="#i" id="r" gradientUnits="userSpaceOnUse" gradientTransform="matrix(.526 0 0 1.016 -.258 5.508)" x1="24.64" y1="3.381" x2="24.64" y2="4.497"/><linearGradient xlink:href="#k" id="s" gradientUnits="userSpaceOnUse" gradientTransform="matrix(.375 0 0 .494 .229 8.144)" x1="10.199" y1=".065" x2="54.887" y2=".065"/><linearGradient id="k"><stop offset="0" stop-color="#9b876c"/><stop offset=".934" stop-color="#9b876c"/><stop offset=".942" stop-color="#c2c2c2"/><stop offset="1" stop-color="#c2c2c2"/></linearGradient><radialGradient r="2.5" fy="43.5" fx="4.993" cy="43.5" cx="4.993" gradientTransform="matrix(2.004 0 0 1.4 27.988 -17.4)" gradientUnits="userSpaceOnUse" id="o" xlink:href="#l"/><linearGradient id="l"><stop offset="0" stop-color="#181818"/><stop offset="1" stop-color="#181818" stop-opacity="0"/></linearGradient><radialGradient r="2.5" fy="43.5" fx="4.993" cy="43.5" cx="4.993" gradientTransform="matrix(2.004 0 0 1.4 -20.012 -104.4)" gradientUnits="userSpaceOnUse" id="p" xlink:href="#m"/><linearGradient id="m"><stop offset="0" stop-color="#181818"/><stop offset="1" stop-color="#181818" stop-opacity="0"/></linearGradient><linearGradient y2="39.999" x2="25.058" y1="47.028" x1="25.058" gradientUnits="userSpaceOnUse" id="q" xlink:href="#n"/><linearGradient id="n"><stop offset="0" stop-color="#181818" stop-opacity="0"/><stop offset=".5" stop-color="#181818"/><stop offset="1" stop-color="#181818" stop-opacity="0"/></linearGradient></defs><g transform="translate(0 -8)"><g transform="matrix(.526 0 0 .428 -.631 10.861)" opacity=".4"><rect width="5" height="7" x="38" y="40" fill="url(#o)"/><rect width="5" height="7" x="-10" y="-47" transform="scale(-1)" fill="url(#p)"/><rect width="28" height="7" x="10" y="40" fill="url(#q)"/></g><path d="M20.491 10.304c-.155-.655-.058-1.171-.144-1.796h-15.839l.093 1.983" fill="url(#r)" stroke="url(#s)" stroke-width="1.017" stroke-linejoin="round" stroke-miterlimit="0"/><path d="M5.5 10.5h-1.6c-.228 0-.4-.021-.4-.049v-1.398c0-.444.224-.553.516-.553h1.484" color="#000" fill="url(#t)" stroke="url(#u)" stroke-linecap="round" stroke-linejoin="round" overflow="visible" enable-background="accumulate"/><rect y="10.51" x="4.51" height="18.981" width="15.981" fill="url(#v)" stroke="url(#w)" stroke-width="1.019" stroke-linecap="round" stroke-linejoin="round" stroke-miterlimit="0"/><path d="M5.5 10.5v19h-1.6c-.228 0-.4-.201-.4-.463v-18.537z" color="#000" fill="url(#x)" stroke="url(#y)" stroke-linecap="round" stroke-linejoin="round" overflow="visible" enable-background="accumulate"/><rect y="11.5" x="4.5" height="17" width="15" opacity=".5" stroke="url(#z)" stroke-linecap="round" stroke-linejoin="round" fill="none"/><path d="M12.952 15c-.36-.002-.676.063-.891.198-.278.174-.4.196-.477.076-.074-.115-.142-.102-.207.061-.055.138-.171.2-.302.152-.126-.046-.177-.031-.127.046.048.074.024.137-.048.137-.072 0-.303.233-.509.517-.328.453-.382.66-.382 1.613 0 .598.063 1.18-.127 1.217-.111.022-.101.437-.048.867.069.562.173.837.461 1.095.449.402.859 1.098.859 1.476 0 .518-1.264 1.424-3.154 2.251v1.294h9.999l.001-1.429c-1.569-.682-2.868-1.627-2.868-2.116 0-.377.395-1.074.843-1.476.288-.258.408-.533.477-1.095.053-.43.06-.833-.048-.867-.149-.047-.143-.624-.143-1.217 0-.85-.057-1.166-.286-1.521-.457-.708-1.944-1.272-3.023-1.278z" opacity=".4" fill="#fff" fill-rule="evenodd" overflow="visible" enable-background="accumulate"/><path d="M12.953 14.522c-.512-.112-1.125.233-1.125.233l-.551.259s-.597.49-.603.656c-.336.559-.183 1.237-.217 1.848.033.525-.356.914-.161 1.447-.028.514.422.815.711 1.187.326.47.768 1.084.42 1.647-.644.878-1.715 1.344-2.692 1.822-.332.032-.207.332-.229.546-.001.17-.06.395.205.316h8.789v-.883c-.946-.451-1.934-.934-2.597-1.736-.399-.537.001-1.182.315-1.66.245-.398.757-.652.764-1.159.188-.514-.096-.94-.149-1.431-.069-.651.118-1.362-.212-1.967-.448-.619-1.268-.891-2.012-1.057-.216-.041-.436-.068-.656-.069z" color="#000" fill="url(#A)" stroke="url(#B)" stroke-linecap="round" stroke-linejoin="round" overflow="visible" enable-background="accumulate"/><path d="M12.842 15.501c-.083-.008-.212.027-.397.111-.137.062-.341.116-.548.153l.014.014-.233.139-.041.014-.014.014c-.059.065-.175.201-.26.348-.089.154-.129.32-.123.362a.408.416 0 0 1 .014.098c-.039.426.092 1.001-.11 1.644a.408.416 0 0 1-.027.084c-.076.132-.019.574.11.906.421.45.931 1.05.918 1.867a.408.416 0 0 1-.014.098c-.222.775-.908 1.149-1.342 1.463a.408.416 0 0 1-.014.014c-.408.275-.844.453-1.274.669h7c-.799-.382-1.59-.833-2.219-1.533l-.014-.014c-.293-.31-.353-.736-.288-1.073.064-.331.214-.609.356-.836l.014-.028c.143-.262.32-.442.438-.585.123-.149.175-.231.178-.348a.408.416 0 0 1 .027-.111c.044-.135.025-.243-.014-.418-.038-.171-.115-.402-.137-.683v-.014c-.036-.365.007-.694 0-.975-.007-.28-.058-.485-.178-.655v-.014c-.427-.45-1.13-.681-1.795-.711a.408.416 0 0 1-.027 0z" opacity=".5" color="#000" stroke="url(#C)" stroke-linecap="round" stroke-linejoin="round" overflow="visible" enable-background="accumulate" fill="none"/></g></svg>