<svg xmlns="http://www.w3.org/2000/svg" xmlns:xlink="http://www.w3.org/1999/xlink" version="1" width="24" height="24"><defs><linearGradient x1="44.995" y1="17.5" x2="3.005" y2="17.5" id="o" xlink:href="#a" gradientUnits="userSpaceOnUse" gradientTransform="matrix(.512 0 0 .5 -.296 -.246)" spreadMethod="reflect"/><linearGradient id="a"><stop offset="0" stop-color="#fff" stop-opacity="0"/><stop offset=".245" stop-color="#fff"/><stop offset=".774" stop-color="#fff"/><stop offset="1" stop-color="#fff" stop-opacity="0"/></linearGradient><linearGradient x1="26" y1="22" x2="26" y2="8" id="n" xlink:href="#b" gradientUnits="userSpaceOnUse" gradientTransform="matrix(.5 0 0 .571 0 -1.571)"/><linearGradient id="b"><stop offset="0" stop-color="#fff"/><stop offset=".271" stop-color="#fff"/><stop offset=".39" stop-color="#fff" stop-opacity=".69"/><stop offset="1" stop-color="#fff" stop-opacity="0"/></linearGradient><linearGradient x1="23.452" y1="30.555" x2="43.007" y2="45.934" id="m" xlink:href="#c" gradientUnits="userSpaceOnUse" gradientTransform="matrix(.657 0 0 .587 -3.403 -3.387)"/><linearGradient id="c"><stop offset="0" stop-color="#fff" stop-opacity="0"/><stop offset="1" stop-color="#fff" stop-opacity="0"/></linearGradient><linearGradient x1="24.823" y1="15.378" x2="24.997" y2="37.277" id="k" xlink:href="#d" gradientUnits="userSpaceOnUse" gradientTransform="matrix(.657 0 0 .778 -3.404 -8.379)"/><linearGradient id="d"><stop offset="0" stop-color="#dac197"/><stop offset=".261" stop-color="#c1a581"/><stop offset=".316" stop-color="#dbc298"/><stop offset="1" stop-color="#a68b60"/></linearGradient><linearGradient x1="15.464" y1="7.976" x2="15.464" y2="45.042" id="l" xlink:href="#e" gradientUnits="userSpaceOnUse" gradientTransform="matrix(.512 0 0 .5 -.294 -.737)"/><linearGradient id="e"><stop offset="0" stop-color="#c9af8b"/><stop offset=".249" stop-color="#ad8757"/><stop offset=".312" stop-color="#c2a57f"/><stop offset="1" stop-color="#9d7d53"/></linearGradient><radialGradient cx="5" cy="41.5" r="5" fx="5" fy="41.5" id="h" xlink:href="#f" gradientUnits="userSpaceOnUse" gradientTransform="matrix(.594 0 0 1.537 -6.659 -103.936)"/><linearGradient id="f"><stop offset="0"/><stop offset="1" stop-opacity="0"/></linearGradient><linearGradient x1="17.554" y1="46" x2="17.554" y2="35" id="i" xlink:href="#g" gradientUnits="userSpaceOnUse" gradientTransform="matrix(1.757 0 0 1.397 -17.394 -16.412)"/><linearGradient id="g"><stop offset="0" stop-opacity="0"/><stop offset=".5"/><stop offset="1" stop-opacity="0"/></linearGradient><radialGradient cx="5" cy="41.5" r="5" fx="5" fy="41.5" id="j" xlink:href="#f" gradientUnits="userSpaceOnUse" gradientTransform="matrix(.594 0 0 1.537 41.141 -103.936)"/></defs><g><g transform="matrix(.518 0 0 .456 -.378 2.203)" opacity=".4"><rect width="2.96" height="15.367" x="-3.69" y="-47.848" transform="scale(-1)" fill="url(#h)"/><rect width="40.412" height="15.367" x="3.69" y="32.482" fill="url(#i)"/><rect width="2.96" height="15.367" x="44.11" y="-47.848" transform="scale(1 -1)" fill="url(#j)"/></g><path d="M4.322 3.511h15.111c.882 0 1.279-.143 1.532.5l1.538 4.49v12.339c0 .776.053.658-.829.658h-19.346c-.882 0-.829.119-.829-.658v-12.339l1.538-4.49c.246-.63.404-.5 1.286-.5z" fill="url(#k)" stroke="url(#l)" stroke-width=".994" stroke-linecap="round" display="block" overflow="visible"/><path d="M4.803 4.017h14.166c.827 0 1.339.278 1.685 1.042l1.193 3.208v11.566c0 .73-.419 1.097-1.246 1.097h-17.28c-.827 0-1.164-.404-1.164-1.134v-11.53l1.155-3.277c.231-.592.666-.974 1.493-.974z" opacity=".505" stroke="url(#m)" stroke-width=".742" display="block" overflow="visible" fill="none"/><path d="M11 3h2v8h-2.001v-8z" opacity=".4" fill="url(#n)" overflow="visible" enable-background="accumulate"/><path d="M1.5 8.5h21" opacity=".4" stroke="url(#o)" stroke-linecap="square" fill="none"/></g></svg>