<svg xmlns="http://www.w3.org/2000/svg" xmlns:xlink="http://www.w3.org/1999/xlink" version="1" width="24" height="24"><defs><linearGradient id="a"><stop offset="0" stop-opacity="0"/><stop offset=".5"/><stop offset="1" stop-opacity="0"/></linearGradient><linearGradient x1="302.857" y1="366.648" x2="302.857" y2="609.505" id="h" xlink:href="#a" gradientUnits="userSpaceOnUse" gradientTransform="matrix(.035 0 0 .008 -.725 18.981)"/><radialGradient cx="605.714" cy="486.648" r="117.143" fx="605.714" fy="486.648" id="i" xlink:href="#b" gradientUnits="userSpaceOnUse" gradientTransform="matrix(-.012 0 0 .008 10.761 18.981)"/><linearGradient id="b"><stop offset="0"/><stop offset="1" stop-opacity="0"/></linearGradient><radialGradient cx="605.714" cy="486.648" r="117.143" fx="605.714" fy="486.648" id="j" xlink:href="#b" gradientUnits="userSpaceOnUse" gradientTransform="matrix(.012 0 0 .008 13.239 18.981)"/><linearGradient id="c"><stop offset="0" stop-color="#2e4a5a"/><stop offset="1" stop-color="#6e8796"/></linearGradient><linearGradient x1="-53.412" y1="56.11" x2="-51.786" y2="2.906" id="l" xlink:href="#c" gradientUnits="userSpaceOnUse" gradientTransform="matrix(.392 0 0 .447 29.199 -1.239)"/><linearGradient id="d"><stop offset="0" stop-color="#a3c0d0"/><stop offset="1" stop-color="#427da1"/></linearGradient><radialGradient cx="8.12" cy="6.628" r="9" fx="8.12" fy="6.628" id="k" xlink:href="#d" gradientUnits="userSpaceOnUse" gradientTransform="matrix(.014 2.065 -3.052 .021 28.232 -11.638)"/><linearGradient id="e"><stop offset="0" stop-color="#c4c4c4"/><stop offset="1" stop-color="#c4c4c4" stop-opacity="0"/></linearGradient><linearGradient x1="35.349" y1="5.307" x2="34.103" y2="6.544" id="m" xlink:href="#e" gradientUnits="userSpaceOnUse" gradientTransform="matrix(.516 0 0 .513 -.896 .185)"/><linearGradient id="f"><stop offset="0" stop-color="#fff"/><stop offset="1" stop-color="#fff" stop-opacity="0"/></linearGradient><linearGradient x1="24" y1="2" x2="24" y2="46.017" id="n" xlink:href="#f" gradientUnits="userSpaceOnUse" gradientTransform="matrix(.455 0 0 .465 1.091 .337)"/><linearGradient id="g"><stop offset="0" stop-color="#fefefe"/><stop offset="1" stop-color="#cbcbcb"/></linearGradient><linearGradient x1="32.892" y1="8.059" x2="36.358" y2="5.457" id="o" xlink:href="#g" gradientUnits="userSpaceOnUse" gradientTransform="matrix(.478 0 0 .552 .372 -.076)"/></defs><g><rect width="17" height="2" x="3.5" y="22" opacity=".15" fill="url(#h)" overflow="visible"/><path d="M3.5 22v2c-.62.004-1.5-.448-1.5-1s.692-1 1.5-1z" opacity=".15" fill="url(#i)" overflow="visible"/><path d="M20.5 22v2c.62.004 1.5-.448 1.5-1s-.692-1-1.5-1z" opacity=".15" fill="url(#j)" overflow="visible"/><path d="M3.5.5h11.5c.683.237 4.541 3.128 5.5 5v17h-17v-22z" fill="url(#k)" stroke="url(#l)" stroke-linejoin="round"/><path d="M15.004.5c.725.244 4.478 3.045 5.496 4.967v6.217c-20.852 8.07-18.022-11.184-5.496-11.184z" stroke="url(#m)" stroke-linejoin="round" fill="none"/><path d="M19.5 5.677v15.823h-15v-20h10.394" opacity=".4" stroke="url(#n)" fill="none"/><path d="M16.362 6.001c-2.357.38-5.512.771-7.862 1.172-.622.304-.483 1.086-.51 1.653v7.596c-1.312-.247-2.911.837-2.981 2.553-.113 1.068.834 1.998 1.864 2.023 1.845.045 3.106-1.179 3.126-2.727-.02-2.599.006-5.2 0-7.8.286-.021 4.611-.847 5-.901v5.841c-1.146-.275-2.612.479-2.975 2.017-.153.862.136 1.945 1.012 2.31 1.708.785 4.053-.805 3.958-2.671-.026-3.466.022-6.934 0-10.4-.045-.326-.266-.691-.632-.667z" opacity=".4" fill="#fff"/><path d="M16.362 5.001c-2.357.38-5.512.771-7.862 1.172-.622.304-.483 1.086-.51 1.653v7.596c-1.312-.247-2.911.837-2.981 2.553-.113 1.068.834 1.998 1.864 2.023 1.845.045 3.106-1.179 3.126-2.727-.02-2.599.006-5.2 0-7.8.286-.021 4.611-.847 5-.901v5.841c-1.146-.275-2.612.479-2.975 2.017-.153.862.136 1.945 1.012 2.31 1.708.785 4.053-.805 3.958-2.671-.026-3.466.022-6.934 0-10.4-.045-.326-.266-.691-.632-.667z" fill="#304c5c"/><path d="M14.075 1c1.156.329.339 4.614.339 4.614s4.515-.428 5.608 1.195c1.489 2.212-.068-.635-.173-.822-.756-1.34-3.866-4.547-5.045-4.941-.088-.029-.284-.046-.728-.046z" opacity=".2" fill-rule="evenodd"/><path d="M14 1c1.526 0 1 4 1 4s4.992-.453 4.992 2c0-.598.056-1.478-.064-1.656-.839-1.243-3.744-3.862-4.798-4.298-.086-.036-.686-.046-1.13-.046z" fill="url(#o)" fill-rule="evenodd"/></g></svg>