<svg xmlns="http://www.w3.org/2000/svg" xmlns:xlink="http://www.w3.org/1999/xlink" version="1" width="24" height="24"><defs><linearGradient id="a"><stop offset="0" stop-opacity="0"/><stop offset=".5"/><stop offset="1" stop-opacity="0"/></linearGradient><linearGradient x1="302.857" y1="366.648" x2="302.857" y2="609.505" id="h" xlink:href="#a" gradientUnits="userSpaceOnUse" gradientTransform="matrix(.035 0 0 .008 -.725 18.981)"/><radialGradient cx="605.714" cy="486.648" r="117.143" fx="605.714" fy="486.648" id="i" xlink:href="#b" gradientUnits="userSpaceOnUse" gradientTransform="matrix(-.012 0 0 .008 10.761 18.981)"/><linearGradient id="b"><stop offset="0"/><stop offset="1" stop-opacity="0"/></linearGradient><radialGradient cx="605.714" cy="486.648" r="117.143" fx="605.714" fy="486.648" id="j" xlink:href="#b" gradientUnits="userSpaceOnUse" gradientTransform="matrix(.012 0 0 .008 13.239 18.981)"/><linearGradient id="c"><stop offset="0" stop-color="#aaa"/><stop offset="1" stop-color="#c8c8c8"/></linearGradient><linearGradient x1="-51.786" y1="50.786" x2="-51.786" y2="2.906" id="l" xlink:href="#c" gradientUnits="userSpaceOnUse" gradientTransform="matrix(.392 0 0 .447 29.199 -1.239)"/><linearGradient id="d"><stop offset="0" stop-color="#f4f4f4"/><stop offset="1" stop-color="#dbdbdb"/></linearGradient><linearGradient x1="25.132" y1=".985" x2="25.132" y2="47.013" id="k" xlink:href="#d" gradientUnits="userSpaceOnUse" gradientTransform="matrix(.486 0 0 .478 .343 -.706)"/><radialGradient cx="102" cy="112.305" r="139.559" id="e" gradientUnits="userSpaceOnUse"><stop offset="0" stop-color="#b7b8b9"/><stop offset=".189" stop-color="#ececec"/><stop offset=".257" stop-color="#fafafa" stop-opacity="0"/><stop offset=".301" stop-color="#fff" stop-opacity="0"/><stop offset=".531" stop-color="#fafafa" stop-opacity="0"/><stop offset=".845" stop-color="#ebecec" stop-opacity="0"/><stop offset="1" stop-color="#e1e2e3" stop-opacity="0"/></radialGradient><radialGradient cx="102" cy="112.305" r="139.559" id="m" xlink:href="#e" gradientUnits="userSpaceOnUse" gradientTransform="matrix(.17 0 0 -.191 1.106 23.717)"/><linearGradient id="f"><stop offset="0" stop-color="#fff"/><stop offset="1" stop-color="#fff" stop-opacity="0"/></linearGradient><linearGradient x1="24" y1="2" x2="24" y2="46.017" id="n" xlink:href="#f" gradientUnits="userSpaceOnUse" gradientTransform="matrix(.455 0 0 .465 1.091 .337)"/><linearGradient id="g"><stop offset="0" stop-color="#fefefe"/><stop offset="1" stop-color="#cbcbcb"/></linearGradient><linearGradient x1="32.892" y1="8.059" x2="36.358" y2="5.457" id="o" xlink:href="#g" gradientUnits="userSpaceOnUse" gradientTransform="matrix(.478 0 0 .552 .372 -.076)"/></defs><g><rect width="17" height="2" x="3.5" y="22" opacity=".15" fill="url(#h)" overflow="visible"/><path d="M3.5 22v2c-.62.004-1.5-.448-1.5-1s.692-1 1.5-1z" opacity=".15" fill="url(#i)" overflow="visible"/><path d="M20.5 22v2c.62.004 1.5-.448 1.5-1s-.692-1-1.5-1z" opacity=".15" fill="url(#j)" overflow="visible"/><path d="M3.5.5h11.5c.683.237 4.541 3.128 5.5 5v17h-17v-22z" fill="url(#k)" stroke="url(#l)" stroke-linejoin="round"/><path d="M4.17 22c-.094 0-.17-.086-.17-.191v-20.598c0-.105.076-.191.17-.191 3.521.053 7.424-.079 10.941.013l4.839 4.327.05 16.448c0 .105-.076.191-.17.191h-15.66z" fill="url(#m)"/><path d="M19.5 5.677v15.823h-15v-20h10.394" opacity=".6" stroke="url(#n)" fill="none"/><path d="M14.075 1c1.156.329.339 4.614.339 4.614s4.515-.428 5.608 1.195c1.489 2.212-.068-.635-.173-.822-.756-1.34-3.866-4.547-5.045-4.941-.088-.029-.284-.046-.728-.046z" opacity=".2" fill-rule="evenodd"/><path d="M14 1c1.526 0 1 4 1 4s4.992-.453 4.992 2c0-.598.056-1.478-.064-1.656-.839-1.243-3.744-3.862-4.798-4.298-.086-.036-.686-.046-1.13-.046z" fill="url(#o)" fill-rule="evenodd"/><g><path d="M6 5h1.124v1h-1.124v-1z" fill="#89adc2"/><path d="M7.277 5h1.061v1h-1.061v-1z" fill="#89adc2"/><path d="M8.491 5h.934v1h-.934v-1z" fill="#89adc2"/><path d="M9.578 5h.41v1h-.41v-1z" fill="#89adc2"/><path d="M10.141 5h.918v1h-.918v-1z" fill="#89adc2"/><path d="M11.212 5h2.377v1h-2.377v-1z" fill="#89adc2"/><path d="M6 11h1.124v1h-1.124v-1z" fill="#b78ed4"/><path d="M7.277 11h1.061v1h-1.061v-1z" fill="#d48eb3"/><path d="M8.491 11h.934v1h-.934v-1z" fill="#d48eb3"/><path d="M9.578 11h.41v1h-.41v-1z" fill="#d48eb3"/><path d="M10.141 13h.918v1h-.918v-1z" fill="#89adc2"/><path d="M11.212 13h2.377v1h-2.377v-1z" fill="#89adc2"/><path d="M13.742 13h1.806v1h-1.806v-1z" fill="#89adc2"/><path d="M15.702 13h.553v1h-.553v-1z" fill="#89adc2"/><path d="M6 7h1.743v1h-1.743v-1z" fill="#89adc2"/><path d="M7.902 7h.838v1h-.838v-1z" fill="#89adc2"/><path d="M8.899 7h.394v1h-.394v-1z" fill="#89adc2"/><path d="M9.453 7h.759v1h-.759v-1z" fill="#89adc2"/><path d="M10.371 7h.759v1h-.759v-1z" fill="#89adc2"/><path d="M11.289 7h1.219v1h-1.219v-1z" fill="#89adc2"/><path d="M12.668 7h1.6v1h-1.6v-1z" fill="#89adc2"/><path d="M14.427 7h1.076v1h-1.076v-1z" fill="#89adc2"/><path d="M6 9h1.997v1h-1.997v-1z" fill="#89adc2"/><path d="M8.153 9h2.139v1h-2.139v-1z" fill="#89adc2"/><path d="M10.449 9h.854v1h-.854v-1z" fill="#89adc2"/><path d="M6 17h1.997v1h-1.997v-1z" opacity=".7" fill="#666"/><path d="M8.153 17h2.139v1h-2.139v-1z" opacity=".7" fill="#666"/><path d="M10.449 17h.854v1h-.854v-1z" fill="#d48eb3"/><path d="M11.46 17h2.013v1h-2.013v-1z" fill="#d48eb3"/><path d="M15.164 17h.537v1h-.537v-1z" fill="#d48eb3"/><path d="M13.629 17h1.378v1h-1.378v-1z" fill="#d48eb3"/><path d="M15.857 17h.315v1h-.315v-1z" fill="#d48eb3"/><path d="M16.329 17h.854v1h-.854v-1z" fill="#d48eb3"/><path d="M6 13h1.441v1h-1.441v-1z" fill="#b78ed4"/><path d="M7.595 13h2.393v1h-2.393v-1z" fill="#d48eb3"/><path d="M6 15h1.806v1h-1.806v-1z" fill="#94d48e"/><path d="M7.955 15h.569v1h-.569v-1z" fill="#94d48e"/><path d="M8.673 15h1.299v1h-1.299v-1z" opacity=".7" fill="#666"/><path d="M10.121 15h.886v1h-.886v-1z" opacity=".7" fill="#666"/><path d="M14.04 15h1.664v1h-1.664v-1z" fill="#89adc2"/><path d="M15.853 15h.886v1h-.886v-1z" fill="#89adc2"/><path d="M6 19h1.487v1h-1.487v-1z" fill="#de6161"/><path d="M7.726 19h2.647v1h-2.647v-1z" opacity=".7" fill="#666"/><path d="M16.737 19h-.727v1h.727v-1z" fill="#89adc2"/><path d="M15.821 19h-2.647v1h2.647v-1z" fill="#89adc2"/></g></g></svg>