<svg xmlns="http://www.w3.org/2000/svg" xmlns:xlink="http://www.w3.org/1999/xlink" width="24" height="24"><defs><linearGradient x1="32.892" y1="8.059" x2="36.358" y2="5.457" id="q" xlink:href="#a" gradientUnits="userSpaceOnUse" gradientTransform="matrix(.478 0 0 .552 .372 7.924)"/><linearGradient id="a"><stop offset="0" stop-color="#fefefe"/><stop offset="1" stop-color="#cbcbcb"/></linearGradient><linearGradient xlink:href="#b" id="p" gradientUnits="userSpaceOnUse" x1="17.976" y1="17.984" x2="17.976" y2="6.029"/><linearGradient id="b"><stop offset="0" stop-color="#365f0e"/><stop offset="1" stop-color="#84a718"/></linearGradient><linearGradient x1="24" y1="2" x2="24" y2="46.017" id="o" xlink:href="#c" gradientUnits="userSpaceOnUse" gradientTransform="matrix(.455 0 0 .465 1.091 8.337)"/><linearGradient id="c"><stop offset="0" stop-color="#fff"/><stop offset="1" stop-color="#fff" stop-opacity="0"/></linearGradient><radialGradient cx="92.09" cy="102.703" r="139.559" fx="92.09" fy="102.703" id="n" xlink:href="#d" gradientUnits="userSpaceOnUse" gradientTransform="matrix(.17 0 0 -.191 1.106 31.717)"/><linearGradient id="d"><stop offset="0" stop-color="#181818"/><stop offset=".25" stop-color="#181818" stop-opacity="0"/><stop offset="1" stop-color="#181818" stop-opacity="0"/></linearGradient><radialGradient xlink:href="#e" id="l" gradientUnits="userSpaceOnUse" gradientTransform="matrix(0 1.53 -1.596 0 19.181 -28.462)" cx="24" cy="4.5" fx="24" fy="4.5" r="18"/><linearGradient id="e"><stop offset="0" stop-color="#eef87e"/><stop offset=".262" stop-color="#cde34f"/><stop offset=".661" stop-color="#93b723"/><stop offset="1" stop-color="#5a7e0d"/></linearGradient><linearGradient xlink:href="#f" id="m" gradientUnits="userSpaceOnUse" gradientTransform="matrix(.392 0 0 .447 29.199 6.761)" x1="-51.786" y1="50.786" x2="-51.786" y2="2.906"/><linearGradient id="f"><stop offset="0" stop-color="#365f0e"/><stop offset="1" stop-color="#84a718"/></linearGradient><radialGradient cx="605.714" cy="486.648" r="117.143" fx="605.714" fy="486.648" id="k" xlink:href="#g" gradientUnits="userSpaceOnUse" gradientTransform="matrix(.012 0 0 .008 13.239 26.981)"/><linearGradient id="g"><stop offset="0"/><stop offset="1" stop-opacity="0"/></linearGradient><radialGradient cx="605.714" cy="486.648" r="117.143" fx="605.714" fy="486.648" id="j" xlink:href="#g" gradientUnits="userSpaceOnUse" gradientTransform="matrix(-.012 0 0 .008 10.761 26.981)"/><linearGradient id="h"><stop offset="0" stop-opacity="0"/><stop offset=".5"/><stop offset="1" stop-opacity="0"/></linearGradient><linearGradient y2="609.505" x2="302.857" y1="366.648" x1="302.857" gradientTransform="matrix(.035 0 0 .008 -.725 26.981)" gradientUnits="userSpaceOnUse" id="i" xlink:href="#h"/></defs><g transform="translate(0 -8)"><rect width="17" height="2" x="3.5" y="30" opacity=".15" fill="url(#i)" overflow="visible"/><path d="M3.5 30v2c-.62.004-1.5-.448-1.5-1s.692-1 1.5-1z" opacity=".15" fill="url(#j)" overflow="visible"/><path d="M20.5 30v2c.62.004 1.5-.448 1.5-1s-.692-1-1.5-1z" opacity=".15" fill="url(#k)" overflow="visible"/><path d="M3.5 8.5h11.5c.683.237 4.541 3.128 5.5 5v17h-17v-22z" color="#000" fill="url(#l)" stroke="url(#m)" stroke-linejoin="round" overflow="visible" enable-background="accumulate"/><path d="M4.17 30c-.094 0-.17-.086-.17-.191v-20.598c0-.105.076-.191.17-.191 3.521.053 7.424-.079 10.941.013l4.839 4.327.05 16.448c0 .105-.076.191-.17.191h-15.66z" opacity=".3" fill="url(#n)"/><path d="M19.5 13.677v15.823h-15v-20h10.394" opacity=".4" stroke="url(#o)" fill="none"/><path transform="translate(0 8)" d="M9.344 6.031a1.477 1.477 0 0 0-1.313 1.469v2.531h-.531a1.477 1.477 0 0 0-1.094 2.469l4.5 5a1.477 1.477 0 0 0 2.188 0l4.5-5a1.477 1.477 0 0 0-1.094-2.469h-.531v-2.531a1.477 1.477 0 0 0-1.469-1.469h-5a1.477 1.477 0 0 0-.156 0z" opacity=".3" color="#000" fill="url(#p)" overflow="visible" enable-background="accumulate"/><path d="M16.5 19.507l-4.5 5-4.5-5h2v-4h5v4h2z" fill="#f2f2f2" stroke="#fff" stroke-width=".985" overflow="visible"/><path d="M14.075 9c1.156.329.339 4.614.339 4.614s4.515-.428 5.608 1.195c1.489 2.212-.068-.635-.173-.822-.756-1.34-3.866-4.547-5.045-4.941-.088-.029-.284-.046-.728-.046z" opacity=".2" fill-rule="evenodd"/><path d="M14 9c1.526 0 1 4 1 4s4.992-.453 4.992 2c0-.598.056-1.478-.064-1.656-.839-1.243-3.744-3.862-4.798-4.298-.086-.036-.686-.046-1.13-.046z" fill="url(#q)" fill-rule="evenodd"/></g></svg>