<svg xmlns="http://www.w3.org/2000/svg" xmlns:xlink="http://www.w3.org/1999/xlink" version="1" width="24" height="24"><defs><linearGradient id="g"><stop offset="0" stop-opacity="0"/><stop offset=".5"/><stop offset="1" stop-opacity="0"/></linearGradient><linearGradient id="f"><stop offset="0"/><stop offset="1" stop-opacity="0"/></linearGradient><linearGradient id="e"><stop offset="0" stop-color="#aaa"/><stop offset="1" stop-color="#c8c8c8"/></linearGradient><linearGradient id="d"><stop offset="0" stop-color="#f4f4f4"/><stop offset="1" stop-color="#dbdbdb"/></linearGradient><radialGradient cx="102" cy="112.305" r="139.559" id="c" gradientUnits="userSpaceOnUse"><stop offset="0" stop-color="#b7b8b9"/><stop offset=".174" stop-color="#ececec"/><stop offset=".239" stop-color="#fafafa" stop-opacity="0"/><stop offset=".301" stop-color="#fff" stop-opacity="0"/><stop offset=".531" stop-color="#fafafa" stop-opacity="0"/><stop offset=".845" stop-color="#ebecec" stop-opacity="0"/><stop offset="1" stop-color="#e1e2e3" stop-opacity="0"/></radialGradient><linearGradient id="b"><stop offset="0" stop-color="#fff"/><stop offset="1" stop-color="#fff" stop-opacity="0"/></linearGradient><linearGradient id="a"><stop offset="0" stop-color="#fefefe"/><stop offset="1" stop-color="#cbcbcb"/></linearGradient><linearGradient x1="32.892" y1="8.059" x2="36.358" y2="5.457" id="w" xlink:href="#a" gradientUnits="userSpaceOnUse" gradientTransform="matrix(.478 0 0 .552 .372 -.076)"/><linearGradient x1="24" y1="2" x2="24" y2="46.017" id="v" xlink:href="#b" gradientUnits="userSpaceOnUse" gradientTransform="matrix(.455 0 0 .465 1.091 .337)"/><radialGradient cx="92.09" cy="102.703" r="139.559" fx="92.09" fy="102.703" id="u" xlink:href="#c" gradientUnits="userSpaceOnUse" gradientTransform="matrix(.17 0 0 -.191 1.106 23.717)"/><linearGradient x1="25.132" y1=".985" x2="25.132" y2="47.013" id="s" xlink:href="#d" gradientUnits="userSpaceOnUse" gradientTransform="matrix(.486 0 0 .478 .343 -.706)"/><linearGradient x1="-51.786" y1="50.786" x2="-51.786" y2="2.906" id="t" xlink:href="#e" gradientUnits="userSpaceOnUse" gradientTransform="matrix(.392 0 0 .447 29.199 -1.239)"/><radialGradient cx="605.714" cy="486.648" r="117.143" fx="605.714" fy="486.648" id="r" xlink:href="#f" gradientUnits="userSpaceOnUse" gradientTransform="matrix(.012 0 0 .008 13.239 18.981)"/><radialGradient cx="605.714" cy="486.648" r="117.143" fx="605.714" fy="486.648" id="q" xlink:href="#f" gradientUnits="userSpaceOnUse" gradientTransform="matrix(-.012 0 0 .008 10.761 18.981)"/><linearGradient x1="302.857" y1="366.648" x2="302.857" y2="609.505" id="p" xlink:href="#g" gradientUnits="userSpaceOnUse" gradientTransform="matrix(.035 0 0 .008 -.725 18.981)"/><linearGradient x1="-1.937" y1="-.724" x2="-1.937" y2="31.827" id="F" xlink:href="#h" gradientUnits="userSpaceOnUse" gradientTransform="matrix(.147 0 0 .102 10.571 9.336)"/><linearGradient id="h"><stop offset="0" stop-color="#fff"/><stop offset="1" stop-color="#fff" stop-opacity="0"/></linearGradient><linearGradient x1="87.05" y1="53.75" x2="87.05" y2="41.73" id="E" xlink:href="#i" gradientUnits="userSpaceOnUse" gradientTransform="matrix(.161 0 0 .25 -2.191 3.589)"/><linearGradient id="i"><stop offset="0" stop-color="#fff"/><stop offset="1" stop-color="#fff" stop-opacity="0"/></linearGradient><radialGradient cx="8.438" cy="32.535" r="26.406" fx="8.438" fy="32.535" id="D" xlink:href="#j" gradientUnits="userSpaceOnUse" gradientTransform="matrix(.158 0 0 .067 10.029 9.508)"/><linearGradient id="j"><stop offset="0" stop-color="#8b6a35"/><stop offset=".603" stop-color="#754d0d"/><stop offset="1" stop-color="#483816"/></linearGradient><linearGradient x1="5.684" y1="16.366" x2="35.033" y2="16.366" id="C" xlink:href="#k" gradientUnits="userSpaceOnUse" gradientTransform="matrix(.127 0 0 .095 10.565 9.171)" spreadMethod="reflect"/><linearGradient id="k"><stop offset="0" stop-color="#d1d1d1"/><stop offset="1" stop-color="#959594"/></linearGradient><radialGradient cx="-6.454" cy="29.206" r="32" fx="-6.454" fy="29.206" id="A" xlink:href="#l" gradientUnits="userSpaceOnUse" gradientTransform="matrix(0 .23 -.238 0 16.042 14.058)"/><linearGradient id="l"><stop offset="0" stop-color="#eeeeec"/><stop offset=".5" stop-color="#cacac9"/><stop offset="1" stop-color="#6b6b6b"/></linearGradient><linearGradient x1="117.303" y1="55.031" x2="42.135" y2="-10.978" id="B" xlink:href="#m" gradientUnits="userSpaceOnUse" gradientTransform="matrix(.161 0 0 .163 -2.149 8.324)"/><linearGradient id="m"><stop offset="0" stop-color="#5f5f5f"/><stop offset="1" stop-color="#c6c6c6"/></linearGradient><linearGradient x1="34.876" y1="22.978" x2="38.155" y2="23.945" id="y" xlink:href="#n" gradientUnits="userSpaceOnUse" gradientTransform="matrix(.482 0 0 .482 -.353 .576)"/><linearGradient id="n"><stop offset="0" stop-color="#7f7f7f"/><stop offset="1" stop-color="#eaeae8" stop-opacity="0"/></linearGradient><linearGradient x1="35.638" y1="25.259" x2="41.153" y2="30.292" id="z" xlink:href="#m" gradientUnits="userSpaceOnUse" gradientTransform="matrix(.482 0 0 .482 -.353 .576)"/><linearGradient id="o"><stop offset="0"/><stop offset="1" stop-opacity="0"/></linearGradient><radialGradient cx="62.625" cy="4.625" r="10.625" fx="62.625" fy="4.625" id="x" xlink:href="#o" gradientUnits="userSpaceOnUse" gradientTransform="matrix(.545 0 0 .182 -21.898 16.161)"/></defs><rect width="17" height="2" x="3.5" y="22" opacity=".15" fill="url(#p)" overflow="visible"/><path d="M3.5 22v2c-.62.004-1.5-.448-1.5-1s.692-1 1.5-1z" opacity=".15" fill="url(#q)" overflow="visible"/><path d="M20.5 22v2c.62.004 1.5-.448 1.5-1s-.692-1-1.5-1z" opacity=".15" fill="url(#r)" overflow="visible"/><path d="M3.5.5h11.5c.683.237 4.541 3.128 5.5 5v17h-17v-22z" fill="url(#s)" stroke="url(#t)" stroke-linejoin="round"/><path d="M4.17 22c-.094 0-.17-.086-.17-.191v-20.598c0-.105.076-.191.17-.191 3.521.053 7.424-.079 10.941.013l4.839 4.327.05 16.448c0 .105-.076.191-.17.191h-15.66z" fill="url(#u)"/><path d="M19.5 5.677v15.823h-15v-20h10.394" opacity=".6" stroke="url(#v)" fill="none"/><path d="M14.075 1c1.156.329.339 4.614.339 4.614s4.515-.428 5.608 1.195c1.489 2.212-.068-.635-.173-.822-.756-1.34-3.866-4.547-5.045-4.941-.088-.029-.284-.046-.728-.046z" opacity=".2" fill-rule="evenodd"/><path d="M14 1c1.526 0 1 4 1 4s4.992-.453 4.992 2c0-.598.056-1.478-.064-1.656-.839-1.243-3.744-3.862-4.798-4.298-.086-.036-.686-.046-1.13-.046z" fill="url(#w)" fill-rule="evenodd"/><path d="M18 17a5.787 1.929 0 0 1-11.575 0 5.787 1.929 0 1 1 11.575 0z" opacity=".51" fill="url(#x)" fill-rule="evenodd" overflow="visible"/><path d="M15.586 15.873c.988-.087 3.008-2.558 3.008-3.434 0-.133-.043-.269-.102-.375-.075-.126-.155-.209-.266-.292-.508-.364-1.427-.307-2.087-.307-2.162.451-2.62 4.689-.552 4.408z" fill="url(#y)" stroke="url(#z)"/><path d="M11.564 8.538c-2.689 0-4.891.784-5.054 1.772h-.01v1.191c.036 3.158 2.291 5.999 5.064 5.999s5.028-2.841 5.064-5.999v-1.191h-.01c-.163-.988-2.364-1.772-5.054-1.772z" fill="url(#A)" stroke="url(#B)" stroke-linecap="square" stroke-linejoin="round" overflow="visible" enable-background="accumulate"/><path d="M15 10.724a3.707 1.389 0 0 1-7.413 0 3.707 1.389 0 1 1 7.413 0z" fill="url(#C)" overflow="visible" enable-background="accumulate"/><path d="M11.367 9.952c-1.742 0-3.207.446-3.633 1.049.429.602 1.893 1.044 3.633 1.044s3.204-.443 3.633-1.044c-.427-.603-1.892-1.049-3.633-1.049z" fill="url(#D)" overflow="visible" enable-background="accumulate"/><path d="M15.552 13c-.839 1.777-2.307 2.955-3.979 2.955-1.669 0-3.134-1.176-3.974-2.947.646 2.341 2.182 3.992 3.974 3.992 1.794 0 3.334-1.654 3.979-4z" opacity=".3" fill="url(#E)" overflow="visible" enable-background="accumulate"/><path d="M15.729 11a4.312 1.489 0 0 1-8.623 0 4.312 1.489 0 1 1 8.623 0z" opacity=".6" stroke="url(#F)" stroke-width=".974" stroke-linecap="square" stroke-linejoin="round" overflow="visible" enable-background="accumulate" fill="none"/></svg>