<svg xmlns="http://www.w3.org/2000/svg" xmlns:xlink="http://www.w3.org/1999/xlink" version="1" width="24" height="24"><defs><linearGradient id="a"><stop offset="0" stop-opacity="0"/><stop offset=".5"/><stop offset="1" stop-opacity="0"/></linearGradient><linearGradient x1="302.857" y1="366.648" x2="302.857" y2="609.505" id="h" xlink:href="#a" gradientUnits="userSpaceOnUse" gradientTransform="matrix(.035 0 0 .008 -.725 18.981)"/><radialGradient cx="605.714" cy="486.648" r="117.143" fx="605.714" fy="486.648" id="i" xlink:href="#b" gradientUnits="userSpaceOnUse" gradientTransform="matrix(-.012 0 0 .008 10.761 18.981)"/><linearGradient id="b"><stop offset="0"/><stop offset="1" stop-opacity="0"/></linearGradient><radialGradient cx="605.714" cy="486.648" r="117.143" fx="605.714" fy="486.648" id="j" xlink:href="#b" gradientUnits="userSpaceOnUse" gradientTransform="matrix(.012 0 0 .008 13.239 18.981)"/><linearGradient id="c"><stop offset="0" stop-color="#aaa"/><stop offset="1" stop-color="#c8c8c8"/></linearGradient><linearGradient x1="-51.786" y1="50.786" x2="-51.786" y2="2.906" id="l" xlink:href="#c" gradientUnits="userSpaceOnUse" gradientTransform="matrix(.392 0 0 .447 29.199 -1.239)"/><linearGradient id="d"><stop offset="0" stop-color="#f4f4f4"/><stop offset="1" stop-color="#dbdbdb"/></linearGradient><linearGradient x1="25.132" y1=".985" x2="25.132" y2="47.013" id="k" xlink:href="#d" gradientUnits="userSpaceOnUse" gradientTransform="matrix(.486 0 0 .478 .343 -.706)"/><radialGradient cx="102" cy="112.305" r="139.559" id="e" gradientUnits="userSpaceOnUse"><stop offset="0" stop-color="#b7b8b9"/><stop offset=".174" stop-color="#ececec"/><stop offset=".239" stop-color="#fafafa" stop-opacity="0"/><stop offset=".301" stop-color="#fff" stop-opacity="0"/><stop offset=".531" stop-color="#fafafa" stop-opacity="0"/><stop offset=".845" stop-color="#ebecec" stop-opacity="0"/><stop offset="1" stop-color="#e1e2e3" stop-opacity="0"/></radialGradient><radialGradient cx="92.09" cy="102.703" r="139.559" fx="92.09" fy="102.703" id="m" xlink:href="#e" gradientUnits="userSpaceOnUse" gradientTransform="matrix(.17 0 0 -.191 1.106 23.717)"/><linearGradient id="f"><stop offset="0" stop-color="#fff"/><stop offset="1" stop-color="#fff" stop-opacity="0"/></linearGradient><linearGradient x1="24" y1="2" x2="24" y2="46.017" id="n" xlink:href="#f" gradientUnits="userSpaceOnUse" gradientTransform="matrix(.455 0 0 .465 1.091 .337)"/><linearGradient id="g"><stop offset="0" stop-color="#fefefe"/><stop offset="1" stop-color="#cbcbcb"/></linearGradient><linearGradient x1="32.892" y1="8.059" x2="36.358" y2="5.457" id="o" xlink:href="#g" gradientUnits="userSpaceOnUse" gradientTransform="matrix(.478 0 0 .552 .372 -.076)"/></defs><g><rect width="17" height="2" x="3.5" y="22" opacity=".15" fill="url(#h)" overflow="visible"/><path d="M3.5 22v2c-.62.004-1.5-.448-1.5-1s.692-1 1.5-1z" opacity=".15" fill="url(#i)" overflow="visible"/><path d="M20.5 22v2c.62.004 1.5-.448 1.5-1s-.692-1-1.5-1z" opacity=".15" fill="url(#j)" overflow="visible"/><path d="M3.5.5h11.5c.683.237 4.541 3.128 5.5 5v17h-17v-22z" fill="url(#k)" stroke="url(#l)" stroke-linejoin="round"/><path d="M4.17 22c-.094 0-.17-.086-.17-.191v-20.598c0-.105.076-.191.17-.191 3.521.053 7.424-.079 10.941.013l4.839 4.327.05 16.448c0 .105-.076.191-.17.191h-15.66z" fill="url(#m)"/><path d="M19.5 5.677v15.823h-15v-20h10.394" opacity=".6" stroke="url(#n)" fill="none"/><path d="M8.5 12.341c.167.39.354.706.753.274.495-.254 2.154-1.365 1.988-.276-.531 2.015-1.178 4.009-1.672 6.03-.517 1.107.657 2.108 1.882 1.388 1.303-.462 2.423-1.216 3.569-1.907-.156-.33-.26-.804-.692-.372-.567.222-1.805 1.266-2.035.405.476-2.182 1.358-4.283 1.922-6.448.519-.995-.329-2.253-1.597-1.43-1.52.57-2.791 1.501-4.118 2.336zm5.641-7.339c-1.551-.071-2.362 2.082-.888 2.671 1.196.422 2.497-.634 2.205-1.689-.091-.549-.663-1.001-1.317-.982z" style="text-align:start;line-height:100%;-inkscape-font-specification:URW Palladio L Bold" font-size="40" font-weight="bold" opacity=".4" font-family="URW Palladio L"/><path d="M8.5 13.341c.167.39.354.706.753.274.495-.254 2.154-1.365 1.988-.276-.531 2.015-1.178 4.009-1.672 6.03-.517 1.107.657 2.108 1.882 1.388 1.303-.462 2.423-1.216 3.569-1.907-.156-.33-.26-.804-.692-.372-.567.222-1.805 1.266-2.035.405.476-2.182 1.358-4.283 1.922-6.448.519-.995-.329-2.253-1.597-1.43-1.52.57-2.791 1.501-4.118 2.336zm5.641-7.339c-1.551-.071-2.362 2.082-.888 2.671 1.196.422 2.497-.634 2.205-1.689-.091-.549-.663-1.001-1.317-.982z" style="text-align:start;line-height:100%;-inkscape-font-specification:URW Palladio L Bold" font-size="40" font-weight="bold" opacity=".4" fill="#fff" font-family="URW Palladio L"/><path d="M14.075 1c1.156.329.339 4.614.339 4.614s4.515-.428 5.608 1.195c1.489 2.212-.068-.635-.173-.822-.756-1.34-3.866-4.547-5.045-4.941-.088-.029-.284-.046-.728-.046z" opacity=".2" fill-rule="evenodd"/><path d="M14 1c1.526 0 1 4 1 4s4.992-.453 4.992 2c0-.598.056-1.478-.064-1.656-.839-1.243-3.744-3.862-4.798-4.298-.086-.036-.686-.046-1.13-.046z" fill="url(#o)" fill-rule="evenodd"/></g></svg>