<svg xmlns="http://www.w3.org/2000/svg" xmlns:xlink="http://www.w3.org/1999/xlink" width="24" height="24" version="1"><defs><radialGradient xlink:href="#a" id="g" gradientUnits="userSpaceOnUse" gradientTransform="matrix(-2.774 0 0 1.97 112.762 -872.885)" cx="605.714" cy="486.648" fx="605.714" fy="486.648" r="117.143"/><linearGradient id="a"><stop offset="0"/><stop offset="1" stop-opacity="0"/></linearGradient><radialGradient xlink:href="#a" id="f" gradientUnits="userSpaceOnUse" gradientTransform="matrix(2.774 0 0 1.97 -1891.633 -872.885)" cx="605.714" cy="486.648" fx="605.714" fy="486.648" r="117.143"/><linearGradient id="b"><stop offset="0" stop-opacity="0"/><stop offset=".5"/><stop offset="1" stop-opacity="0"/></linearGradient><linearGradient xlink:href="#b" id="e" gradientUnits="userSpaceOnUse" gradientTransform="matrix(2.774 0 0 1.97 -1892.179 -872.885)" x1="302.857" y1="366.648" x2="302.857" y2="609.505"/><radialGradient xlink:href="#c" id="h" gradientUnits="userSpaceOnUse" gradientTransform="matrix(.495 0 0 .534 .111 -.369)" cx="33.967" cy="35.737" fx="33.967" fy="35.737" r="86.708"/><linearGradient id="c"><stop offset="0" stop-color="#828282"/><stop offset="1" stop-color="#434343"/></linearGradient><radialGradient xlink:href="#c" id="i" gradientUnits="userSpaceOnUse" gradientTransform="matrix(.457 0 0 .533 1.756 -.368)" cx="33.967" cy="35.737" fx="33.967" fy="35.737" r="86.708"/><linearGradient id="d"><stop offset="0" stop-color="#81aac3"/><stop offset="1" stop-color="#4e82a3"/></linearGradient><linearGradient xlink:href="#d" id="j" gradientUnits="userSpaceOnUse" gradientTransform="matrix(1.041 0 0 .99 -.3 .556)" x1="12.872" y1="5.056" x2="12.872" y2="18.912"/></defs><g><g transform="matrix(.011 0 0 .006 22.575 21.945)"><rect width="1339.633" height="478.357" x="-1559.252" y="-150.697" opacity=".402" fill="url(#e)" overflow="visible"/><path d="M-219.619-150.68v478.331c142.874.9 345.4-107.17 345.4-239.196 0-132.027-159.437-239.135-345.4-239.135z" opacity=".402" fill="url(#f)" overflow="visible"/><path d="M-1559.252-150.68v478.331c-142.874.9-345.4-107.17-345.4-239.196 0-132.027 159.437-239.135 345.4-239.135z" opacity=".402" fill="url(#g)" overflow="visible"/></g><path d="M6.769 22.474h-3.134c-.254-.248-.061-.741-.121-1.093v-19.76l.035-.085.086-.035h3.091" display="block" fill="url(#h)" stroke="#333" overflow="visible"/><path d="M18.5 1.5h2.875c.234.248.056.741.112 1.092l.008 19.691c0 .29-.466.205-1.023.205l-1.948-.028" display="block" fill="url(#i)" stroke="#333" overflow="visible"/><rect width="12" height="21" x="6.5" y="1.5" rx="0" ry="0" fill="url(#j)" stroke="#333"/><path d="M6.5 11.5h12.002" stroke="#333" fill="none"/><g transform="matrix(.936 0 0 1.045 .367 -.089)" fill="#fff"><rect y="2.097" x="4.361" height=".899" width="1"/><rect y="4.099" x="4.361" height=".899" width="1"/><rect y="6.1" x="4.361" height=".899" width="1"/><rect y="8.101" x="4.361" height=".899" width="1"/><rect y="10.103" x="4.361" height=".899" width="1"/><rect y="12.104" x="4.361" height=".899" width="1"/><rect y="14.105" x="4.361" height=".899" width="1"/><rect y="16.107" x="4.361" height=".899" width="1"/><rect y="18.108" x="4.361" height=".899" width="1"/><rect y="20.109" x="4.361" height=".899" width="1"/></g><g transform="matrix(.936 0 0 1.045 15.53 -.089)" fill="#fff"><rect y="2.097" x="4.361" height=".899" width="1"/><rect y="4.099" x="4.361" height=".899" width="1"/><rect y="6.1" x="4.361" height=".899" width="1"/><rect y="8.101" x="4.361" height=".899" width="1"/><rect y="10.103" x="4.361" height=".899" width="1"/><rect y="12.104" x="4.361" height=".899" width="1"/><rect y="14.105" x="4.361" height=".899" width="1"/><rect y="16.107" x="4.361" height=".899" width="1"/><rect y="18.108" x="4.361" height=".899" width="1"/><rect y="20.109" x="4.361" height=".899" width="1"/></g><path d="M7.5 12.5h10" display="block" opacity=".366" stroke="#fff" stroke-linecap="square" overflow="visible" fill="none"/><path d="M7.5 2.5h10" display="block" opacity=".366" stroke="#fff" stroke-linecap="square" overflow="visible" fill="none"/></g></svg>