<svg xmlns="http://www.w3.org/2000/svg" xmlns:xlink="http://www.w3.org/1999/xlink" version="1" width="24" height="24"><defs><linearGradient id="a"><stop offset="0" stop-opacity="0"/><stop offset=".5"/><stop offset="1" stop-opacity="0"/></linearGradient><linearGradient x1="302.857" y1="366.648" x2="302.857" y2="609.505" id="i" xlink:href="#a" gradientUnits="userSpaceOnUse" gradientTransform="matrix(.035 0 0 .008 -.725 18.981)"/><radialGradient cx="605.714" cy="486.648" r="117.143" fx="605.714" fy="486.648" id="j" xlink:href="#b" gradientUnits="userSpaceOnUse" gradientTransform="matrix(-.012 0 0 .008 10.761 18.981)"/><linearGradient id="b"><stop offset="0"/><stop offset="1" stop-opacity="0"/></linearGradient><radialGradient cx="605.714" cy="486.648" r="117.143" fx="605.714" fy="486.648" id="k" xlink:href="#b" gradientUnits="userSpaceOnUse" gradientTransform="matrix(.012 0 0 .008 13.239 18.981)"/><linearGradient id="c"><stop offset="0" stop-color="#aaa"/><stop offset="1" stop-color="#c8c8c8"/></linearGradient><linearGradient x1="-51.786" y1="50.786" x2="-51.786" y2="2.906" id="m" xlink:href="#c" gradientUnits="userSpaceOnUse" gradientTransform="matrix(.392 0 0 .447 29.199 -1.239)"/><linearGradient id="d"><stop offset="0" stop-color="#f4f4f4"/><stop offset="1" stop-color="#dbdbdb"/></linearGradient><linearGradient x1="25.132" y1=".985" x2="25.132" y2="47.013" id="l" xlink:href="#d" gradientUnits="userSpaceOnUse" gradientTransform="matrix(.486 0 0 .478 .343 -.706)"/><radialGradient cx="102" cy="112.305" r="139.559" id="e" gradientUnits="userSpaceOnUse"><stop offset="0" stop-color="#b7b8b9"/><stop offset=".189" stop-color="#ececec"/><stop offset=".257" stop-color="#fafafa" stop-opacity="0"/><stop offset=".301" stop-color="#fff" stop-opacity="0"/><stop offset=".531" stop-color="#fafafa" stop-opacity="0"/><stop offset=".845" stop-color="#ebecec" stop-opacity="0"/><stop offset="1" stop-color="#e1e2e3" stop-opacity="0"/></radialGradient><radialGradient cx="102" cy="112.305" r="139.559" id="n" xlink:href="#e" gradientUnits="userSpaceOnUse" gradientTransform="matrix(.17 0 0 -.191 1.106 23.717)"/><linearGradient id="f"><stop offset="0" stop-color="#fff"/><stop offset="1" stop-color="#fff" stop-opacity="0"/></linearGradient><linearGradient x1="24" y1="2" x2="24" y2="46.017" id="o" xlink:href="#f" gradientUnits="userSpaceOnUse" gradientTransform="matrix(.455 0 0 .465 1.091 .337)"/><linearGradient x1="19.515" y1="12.443" x2="19.515" y2="46.562" id="p" xlink:href="#g" gradientUnits="userSpaceOnUse" gradientTransform="matrix(.535 0 0 .511 .215 -.724)"/><linearGradient id="g"><stop offset="0" stop-color="#a3c0d0"/><stop offset="1" stop-color="#5a8caa"/></linearGradient><linearGradient x1="19.515" y1="12.443" x2="19.515" y2="46.562" id="q" xlink:href="#g" gradientUnits="userSpaceOnUse" gradientTransform="matrix(.496 0 0 .535 .153 -.61)"/><linearGradient id="h"><stop offset="0" stop-color="#fefefe"/><stop offset="1" stop-color="#cbcbcb"/></linearGradient><linearGradient x1="32.892" y1="8.059" x2="36.358" y2="5.457" id="r" xlink:href="#h" gradientUnits="userSpaceOnUse" gradientTransform="matrix(.478 0 0 .552 .372 -.076)"/></defs><g><rect width="17" height="2" x="3.5" y="22" opacity=".15" fill="url(#i)" overflow="visible"/><path d="M3.5 22v2c-.62.004-1.5-.448-1.5-1s.692-1 1.5-1z" opacity=".15" fill="url(#j)" overflow="visible"/><path d="M20.5 22v2c.62.004 1.5-.448 1.5-1s-.692-1-1.5-1z" opacity=".15" fill="url(#k)" overflow="visible"/><path d="M3.5.5h11.5c.683.237 4.541 3.128 5.5 5v17h-17v-22z" fill="url(#l)" stroke="url(#m)" stroke-linejoin="round"/><path d="M4.17 22c-.094 0-.17-.086-.17-.191v-20.598c0-.105.076-.191.17-.191 3.521.053 7.424-.079 10.941.013l4.839 4.327.05 16.448c0 .105-.076.191-.17.191h-15.66z" fill="url(#n)"/><path d="M19.5 5.677v15.823h-15v-20h10.394" opacity=".6" stroke="url(#o)" fill="none"/><path d="M6.56 5.736h3.083v13.715h-3.083v-13.715z" fill="url(#p)"/><path d="M9 4h9v2h-9v-2z" fill="url(#q)"/><rect width="3.079" height="2.075" x="6" y="3.925" fill="#c0d4df"/><path d="M13.5 3.569v15.931" stroke="#2c465d" stroke-opacity=".324" fill="none"/><path d="M17.5 6.5h-11.001" stroke="#6c6c6c" fill="none"/><path d="M17.5 8.5h-11" stroke="#2c465d" stroke-opacity=".324" fill="none"/><path d="M17.5 11.5h-11" stroke="#2c465d" stroke-opacity=".324" fill="none"/><path d="M17.5 14.5h-11" stroke="#2c465d" stroke-opacity=".324" fill="none"/><path d="M17.5 17.5h-11" stroke="#2c465d" stroke-opacity=".324" fill="none"/><path d="M6.5 4.5l11-.019" opacity=".2" fill="#fff" fill-rule="evenodd" stroke="#fff" stroke-linecap="square" stroke-linejoin="round"/><path d="M9.5 3.569v15.931" stroke="#6c6c6c" fill="none"/><rect width="10.998" height="15.998" x="6.501" y="3.501" stroke="#6c6c6c" stroke-width="1.002" stroke-linecap="square" fill="none"/><path d="M14.075 1c1.156.329.339 4.614.339 4.614s4.515-.428 5.608 1.195c1.489 2.212-.068-.635-.173-.822-.756-1.34-3.866-4.547-5.045-4.941-.088-.029-.284-.046-.728-.046z" opacity=".2" fill-rule="evenodd"/><path d="M14 1c1.526 0 1 4 1 4s4.992-.453 4.992 2c0-.598.056-1.478-.064-1.656-.839-1.243-3.744-3.862-4.798-4.298-.086-.036-.686-.046-1.13-.046z" fill="url(#r)" fill-rule="evenodd"/></g></svg>