<svg xmlns="http://www.w3.org/2000/svg" xmlns:xlink="http://www.w3.org/1999/xlink" width="16" height="16"><defs><linearGradient x1="8.213" y1=".959" x2="8.213" y2="14.986" id="b" xlink:href="#a" gradientUnits="userSpaceOnUse" gradientTransform="matrix(1 0 0 -1 0 16)"/><linearGradient id="a"><stop offset="0" stop-color="#333" stop-opacity=".698"/><stop offset="1" stop-color="#333"/></linearGradient><radialGradient cx="8" cy="13.706" r="5.489" fx="8" fy="13.706" xlink:href="#a" gradientUnits="userSpaceOnUse" gradientTransform="matrix(2.003 0 0 2.103 -27.472 -17.454)"/></defs><path d="M6.75 15v-2.188c-.449-.117-.86-.302-1.25-.531l-1.563 1.563-1.781-1.781 1.563-1.563c-.23-.39-.414-.801-.531-1.25h-2.188v-2.5h2.188c.117-.449.302-.86.531-1.25l-1.563-1.563 1.781-1.781 1.563 1.563c.39-.23.801-.414 1.25-.531v-2.188h2.5v2.188c.449.117.86.302 1.25.531l1.563-1.563 1.781 1.781-1.563 1.563c.23.39.414.801.531 1.25h2.188v2.5h-2.188c-.117.449-.302.86-.531 1.25l1.563 1.563-1.781 1.781-1.563-1.563c-.39.23-.801.414-1.25.531v2.188h-2.5zm1.25-5c1.105 0 2-.895 2-2s-.895-2-2-2-2 .895-2 2 .895 2 2 2z" color="#333" fill="url(#b)" overflow="visible" enable-background="accumulate"/><path d="M6.75 1v2.188c-.449.117-.86.302-1.25.531l-1.563-1.563-1.781 1.781 1.563 1.563c-.23.39-.414.801-.531 1.25h-2.188v2.5h2.188c.117.449.302.86.531 1.25l-1.563 1.563 1.781 1.781 1.563-1.563c.39.23.801.414 1.25.531v2.188h2.5v-2.188c.449-.117.86-.302 1.25-.531l1.563 1.563 1.781-1.781-1.563-1.563c.23-.39.414-.801.531-1.25h2.188v-2.5h-2.188c-.117-.449-.302-.86-.531-1.25l1.563-1.563-1.781-1.781-1.563 1.563c-.39-.23-.801-.414-1.25-.531v-2.188h-2.5zm.875 1h.75v2.031c.827.077 1.584.403 2.188.906l1.406-1.438.531.531-1.438 1.406c.504.603.829 1.36.906 2.188h2.031v.75h-2.031c-.077.827-.403 1.584-.906 2.188l1.438 1.406-.531.531-1.406-1.438c-.603.504-1.36.829-2.188.906v2.031h-.75v-2.031c-.827-.077-1.584-.403-2.188-.906l-1.406 1.438-.531-.531 1.438-1.406c-.504-.603-.829-1.36-.906-2.188h-2.031v-.75h2.031c.077-.827.403-1.584.906-2.188l-1.438-1.406.531-.531 1.406 1.438c.603-.504 1.36-.829 2.188-.906v-2.031z" color="#333" fill="#333" overflow="visible" enable-background="accumulate"/></svg>